<?xml version="1.0" encoding="utf-8"?>
<!-- Generator: Adobe Illustrator 27.0.0, SVG Export Plug-In . SVG Version: 6.00 Build 0)  -->
<svg version="1.1" xmlns="http://www.w3.org/2000/svg" xmlns:xlink="http://www.w3.org/1999/xlink" x="0px" y="0px"
	 viewBox="0 0 1200 1200" style="enable-background:new 0 0 1200 1200;" xml:space="preserve">
<style type="text/css">
	.st0{fill:#1D1D1D;}
	.st1{opacity:0.5;fill:url(#SVGID_1_);}
</style>
<g id="Background">
</g>
<g id="Graphic_Element">
	<g>
		<g>
			<path class="st0" d="M985.3,15C948,15,915.7,40.4,907,76.7l-21.9,90.8H322.3c-24.9,0-48,11.2-63.4,30.8
				c-15.4,19.6-20.8,44.7-14.9,68.8l66.2,272c8.8,36.2,41,61.5,78.3,61.5h360.4c37.3,0,69.5-25.3,78.3-61.5l23.1-94.8l0,0l0.4-1.7
				l67-275.1h-0.7L937,84c5.4-22.4,25.2-38,48.3-38h95V15H985.3z M797.1,531.8c-5.4,22.3-25.3,37.9-48.3,37.9H388.5
				c-23,0-42.8-15.6-48.3-37.9l-66.2-272c-3.6-14.9-0.3-30.4,9.2-42.4c9.5-12.1,23.7-19,39.1-19h555.3l-41,170.2H432.8v30.9h396.5
				l-9,37.5l0,0L797.1,531.8z"/>
			<path class="st0" d="M774.6,640.9c-46.9,0-85,38.1-85,85s38.1,85,85,85c46.9,0,85-38.1,85-85S821.5,640.9,774.6,640.9z
				 M774.6,780c-29.8,0-54.1-24.3-54.1-54.1c0-29.8,24.3-54.1,54.1-54.1c29.8,0,54.1,24.3,54.1,54.1
				C828.7,755.7,804.4,780,774.6,780z"/>
			<path class="st0" d="M362.8,640.9c-46.9,0-85,38.1-85,85s38.1,85,85,85s85-38.1,85-85S409.7,640.9,362.8,640.9z M362.8,780
				c-29.8,0-54.1-24.3-54.1-54.1c0-29.8,24.3-54.1,54.1-54.1c29.8,0,54.1,24.3,54.1,54.1C416.9,755.7,392.6,780,362.8,780z"/>
		</g>
	</g>
	
		<radialGradient id="SVGID_1_" cx="-4940.3438" cy="6042.4697" r="349.5329" gradientTransform="matrix(-1.3858 0.1715 -0.7315 -0.3252 -1826.2614 3820.762)" gradientUnits="userSpaceOnUse">
		<stop  offset="0" style="stop-color:#1D1D1D"/>
		<stop  offset="0.8041" style="stop-color:#1D1D1D;stop-opacity:0"/>
	</radialGradient>
	<ellipse class="st1" cx="600" cy="1008.5" rx="547.7" ry="128.5"/>
</g>
</svg>
