<?xml version="1.0" encoding="utf-8"?>
<!-- Generator: Adobe Illustrator 27.0.0, SVG Export Plug-In . SVG Version: 6.00 Build 0)  -->
<svg version="1.1" id="Слой_1" xmlns="http://www.w3.org/2000/svg" xmlns:xlink="http://www.w3.org/1999/xlink" x="0px" y="0px"
	 viewBox="0 0 312 312" style="enable-background:new 0 0 312 312;" xml:space="preserve">
<style type="text/css">
	.st0{fill:#020202;}
	.st1{fill:#030303;}
	.st2{fill:#070707;}
	.st3{fill:#060606;}
</style>
<g>
	<path class="st0" d="M309.6,176.4c-1.5,2.4-3.7,3.6-6.2,4.6c-10.9,4.3-21.8,8.7-32.7,13c-1.9,0.8-2.6,1.7-2.6,3.8
		c0.1,26.6,0.1,53.2,0.1,79.8c0,6.3-1.7,8.1-8.1,8.1c-82.1,0-164.2,0-246.3,0c-6.3,0-8.1-1.8-8.1-8.1c0-50.1,0-100.3-0.1-150.4
		c0-4.8,0.9-7.5,7-10C35.2,108,58,99,80.7,90c54-21.5,108-43,162.1-64.5c5-2,7.6-0.9,9.6,4c18.7,47,37.4,93.9,56.2,140.9
		c0.3,0.9,0.2,2,1.2,2.5C309.6,174,309.6,175.2,309.6,176.4z M137.2,273.8c38.6,0,77.2,0,115.7,0.1c2.6,0,3.4-0.4,3.4-3.3
		c-0.1-45.6-0.1-91.2,0-136.8c0-2.5-0.5-3.2-3.2-3.2c-77.5,0.1-154.9,0.1-232.4,0c-2.5,0-3.3,0.4-3.3,3.1c0.1,45.7,0.1,91.4,0,137.1
		c0,2.4,0.5,3.1,3,3.1C59.4,273.7,98.3,273.8,137.2,273.8z M42,118.1c0.1,0.2,0.1,0.4,0.2,0.5c11.1,0,22.2,0,33.2,0
		c1,0,2.1,0.3,2.9-1c0.9-1.7,2.7-2.2,4.3-2.9c17.7-7,35.4-14.1,53-21.1c22.8-9.1,45.6-18.1,68.5-27.1c3.5-1.4,5.4-0.8,7.9,2.1
		c7.9,9.1,17.8,13.5,29.9,12.9c3.9-0.2,5.6,0.8,7.1,4.4c4.2,10.1,8.2,20.3,12.3,30.4c0.4,0.9,0.5,2,1.8,2.4c4.2,1.4,5,2.7,5,7.1
		c0,17.7,0.1,35.4-0.1,53.1c0,2.9,0.8,3,3.1,2c7.1-3,14.2-5.9,21.4-8.6c2.8-1,3.2-2,2.1-4.7c-16.8-42-33.6-84-50.3-126.1
		c-1.4-3.6-1.4-3.6-4.9-2.2C179.3,63.2,119.2,87.1,59.2,111C53.4,113.5,47.7,115.8,42,118.1z M106.5,118.2c0,0.1,0.1,0.3,0.1,0.4
		c47.4,0,94.8,0,142.6,0c-3-7.6-6.1-15-8.9-22.4c-0.7-1.9-1.7-2.7-3.8-2.8c-11.5-0.6-21.4-5-29.7-12.9c-1.4-1.3-2.4-1.4-4.1-0.8
		c-24.8,9.9-49.6,19.8-74.4,29.7C121.1,112.3,113.8,115.2,106.5,118.2z"/>
	<path class="st0" d="M137,261.8c-24.1,0-48.3,0-72.4,0c-4.1,0-5.6-1.1-7-5c-4-11.4-11.6-19.1-23-23c-3.7-1.3-5-2.7-5-6.7
		c-0.1-16.4-0.1-32.8,0-49.2c0-4.6,1.2-5.8,5.4-7.3c11-3.9,18.5-11.4,22.4-22.4c1.5-4.3,2.9-5.3,7.4-5.4c3.2-0.1,6.3-0.1,9.5-0.1
		c45,0,90,0,135,0.1c4.2,0,5.7,1.2,7,5c3.9,11.4,11.6,19,23,22.9c3.6,1.2,4.9,2.9,4.9,6.8c0.1,16.5,0.1,33,0,49.6
		c0,3.9-1.2,5.5-4.9,6.8c-11.5,4-19.2,11.7-23.1,23.2c-1.3,3.8-2.7,4.8-6.8,4.8C185.3,261.8,161.1,261.8,137,261.8z M136.9,249.9
		c22.1,0,44.1,0,66.2,0.1c2.4,0,3.4-0.8,4.3-2.8c4.8-10.3,12.6-17.8,22.9-22.6c1.5-0.7,2.2-1.4,2.2-3.2c-0.1-12.9-0.1-25.7,0-38.6
		c0-1.4-0.3-2.2-1.8-2.9c-10.9-4.9-18.8-12.8-23.8-23.7c-0.6-1.4-1.4-1.8-2.8-1.8c-44.7,0-89.4,0-134.1,0c-1.6,0-2.4,0.3-3.1,1.9
		c-4.9,10.8-12.8,18.6-23.5,23.6c-1.5,0.7-2,1.4-2,3.1c0.1,12.8,0.1,25.5,0,38.3c0,1.7,0.5,2.6,2.1,3.3
		c10.6,4.8,18.3,12.6,23.2,23.1c0.9,1.8,1.8,2.4,3.7,2.4C92.6,249.9,114.7,249.9,136.9,249.9z"/>
	<path class="st1" d="M172.7,202.1c0.1,19.8-16,35.9-35.7,35.9c-19.6,0-35.7-16-35.8-35.6c-0.1-19.8,15.9-36,35.6-36.1
		C156.5,166.3,172.6,182.3,172.7,202.1z M160.7,202.2c0-13.1-10.5-23.8-23.6-23.9c-13.2-0.1-24,10.6-24,23.8s10.8,24,23.9,23.9
		C150.2,225.9,160.7,215.3,160.7,202.2z"/>
	<path class="st2" d="M71.2,211.1c-4.8-0.1-8.8-4.1-8.8-8.9c0-4.9,4.2-9.1,9.1-9c4.8,0.1,8.8,4.2,8.9,8.9
		C80.3,207,76.1,211.1,71.2,211.1z M74.3,202.3c-0.1-1.8-1.1-3-2.9-3s-3,1.1-2.9,3c0,1.7,1,2.8,2.7,2.9C73,205.1,74,204,74.3,202.3z
		"/>
	<path class="st3" d="M193.6,202.2c0-5,4-9.1,9-9.1c4.8,0,8.9,4.1,8.9,8.9c0.1,4.9-4.1,9-9,9C197.6,211.1,193.7,207.1,193.6,202.2z
		 M205.6,202.2c-0.2-1.8-1.2-3-3-3c-1.6,0-2.8,0.9-2.9,2.7c-0.1,1.9,0.8,3,2.7,3.1C204.3,205.2,205.2,204,205.6,202.2z"/>
</g>
</svg>
