<?xml version="1.0" encoding="utf-8"?>
<!-- Generator: Adobe Illustrator 27.0.0, SVG Export Plug-In . SVG Version: 6.00 Build 0)  -->
<svg version="1.1" id="Слой_1" xmlns="http://www.w3.org/2000/svg" xmlns:xlink="http://www.w3.org/1999/xlink" x="0px" y="0px"
	 viewBox="0 0 512 512" style="enable-background:new 0 0 512 512;" xml:space="preserve">
<g>
	<path d="M5,255.7C5.1,117.4,117.9,4.8,256.3,5C394.6,5.2,507.2,117.9,507,256.3C506.8,394.6,394,507.2,255.7,507
		C117.4,506.8,4.9,394,5,255.7z M465,255.9c-0.1-115.5-94-209.2-209.2-208.9C140.3,47.3,47.2,140.4,47,255.8
		C46.8,371.2,140.5,465,256,465C371.4,465.1,465.2,371.3,465,255.9z"/>
	<path d="M235.1,192.5c0-7,0-13.9,0-20.9c0-14-0.2-28.1,0.1-42.1c0.2-10.2,8.1-18.5,17.8-19.7c10.7-1.2,20.1,4.7,22.9,14.8
		c0.7,2.3,0.8,4.8,0.8,7.2c0,40.8,0.1,81.6,0,122.4c0,16.3-14.1,26.8-28.3,21c-3.5-1.4-6.9-4-9.2-7c-17.1-21.8-34-43.8-50.8-65.9
		c-7.2-9.5-5.5-22.2,3.6-29.3c9-7.1,21.6-5.7,29.3,3.6c4.4,5.2,8.4,10.8,12.6,16.2C234.4,192.8,234.8,192.6,235.1,192.5z"/>
</g>
</svg>
