<?xml version="1.0" encoding="utf-8"?>
<!-- Generator: Adobe Illustrator 27.0.0, SVG Export Plug-In . SVG Version: 6.00 Build 0)  -->
<svg version="1.1" id="Слой_1" xmlns="http://www.w3.org/2000/svg" xmlns:xlink="http://www.w3.org/1999/xlink" x="0px" y="0px"
	 viewBox="0 0 177 177" style="enable-background:new 0 0 177 177;" xml:space="preserve">
<style type="text/css">
	.st0{fill:#050505;}
	.st1{fill:#070707;}
</style>
<g>
	<path class="st0" d="M4.4,91.3c0.7-1.3,0.9-2.7,1.7-4c1.8-3,4.5-4.8,7.8-5.8c8.7-2.6,17.3-5.3,26-7.9c1.1-0.3,1.5-0.8,1.5-2
		c0-16,0-31.9,0-47.9c0-4.2,1.2-7.7,4.7-10.3c2.2-1.6,4.7-2.3,7.4-2.3c35.6,0,71.3,0,106.9,0c7.4,0,12.1,4.9,12.1,12.3
		c0,21,0,42.1,0,63.1c0,7.5-4.8,12.3-12.3,12.3c-5.7,0-11.4,0-17.1,0c-0.1,0-0.2,0.1-0.4,0.1c1.7,5.5,3.4,11,5,16.5
		c0.8,2.8,2,5.6,1.6,8.6c-0.8,5.6-4.1,9.1-9.5,10.7c-16.2,4.9-32.4,9.9-48.6,14.8c-17.1,5.2-34.2,10.4-51.3,15.7
		c-8.1,2.5-14.3-0.9-16.8-8.9c-6-19.3-11.9-38.8-17.9-58.2C5,97.2,5,96.3,4.4,95.6C4.4,94.1,4.4,92.7,4.4,91.3z M106.7,94.1
		c17.7,0,35.3,0,53,0c5.3,0,7.8-2.5,7.8-7.8c0-20.8,0-41.7,0-62.5c0-5.3-2.5-7.9-7.8-7.9c-35.3,0-70.5,0-105.8,0
		c-5.3,0-7.8,2.6-7.8,7.9c0,20.7,0,41.4,0,62.2c0,5.7,2.5,8.2,8.2,8.2C71.7,94.1,89.2,94.1,106.7,94.1z M108.3,99.7
		c0-0.1,0-0.2-0.1-0.3c-0.3,0-0.5-0.1-0.8-0.1c-8.4,0-16.7,0-25.1,0c-0.6,0-1.3,0.1-1.9,0.3c-20.8,6.4-41.6,12.8-62.3,19.1
		c-1.1,0.3-1.4,0.6-1,1.9c3.5,11.4,7,22.8,10.5,34.2c1.8,5.8,5.2,7.6,11,5.9c16.7-5.1,33.3-10.2,50-15.3
		c16.6-5.1,33.1-10.1,49.7-15.1c4.9-1.5,7.1-5.1,5.8-9.7c-2-6.8-4.1-13.5-6.2-20.3c-0.2-0.7-0.5-1-1.3-1c-4.2,0-8.4,0-12.6,0
		c-1,0-1.1,0.4-0.8,1.2c0.6,1.9,1.2,3.7,1.7,5.6c0.7,2.3,0.1,3.3-2.1,3.9c-5.8,1.8-11.7,3.6-17.5,5.4c-22.1,6.8-44.2,13.5-66.2,20.3
		c-2.6,0.8-3.5,0.3-4.2-2.2c-0.7-2.3-1.4-4.6-2.1-6.9c-0.8-2.7-0.3-3.6,2.4-4.4c20.1-6.2,40.2-12.3,60.3-18.5
		C99.7,102.4,104,101,108.3,99.7z M63.7,99.7c0-0.1,0-0.3,0-0.4c-3.2,0-6.4,0-9.6,0c-5.8-0.1-10.4-3.1-12.1-8.1
		c-0.4-1.2-0.9-1.2-2-0.9c-9.4,2.9-18.8,5.7-28.1,8.6c-1.1,0.3-1.2,0.8-0.9,1.8c1.3,4.2,2.6,8.3,3.8,12.5c0.4,1.3,0.8,1.4,2,1
		c11-3.4,22-6.8,33-10.1C54.4,102.6,59.1,101.2,63.7,99.7z M119.8,105.6c-0.3-0.9-0.5-1.6-0.7-2.4c-0.3-1.3-0.7-1.7-2.2-1.2
		c-25.5,7.9-51,15.7-76.6,23.5c-2.7,0.8-2.6,0.8-1.9,3.5c0.4,1.4,0.8,1.6,2.2,1.2c18.8-5.8,37.7-11.6,56.6-17.4
		c7.1-2.2,14.3-4.4,21.4-6.6C119,106.2,119.8,106.3,119.8,105.6z M41.3,78.1c-3.7,1.1-7.1,2.2-10.6,3.3c-5.4,1.6-10.7,3.2-16,4.9
		c-3.5,1.1-5.5,3.8-5.5,7.1c0,0.9,0,1.4,1.2,1c9.9-3.1,19.8-6,29.7-9c0.5-0.2,1.2-0.2,1.1-1.1C41.2,82.2,41.3,80.3,41.3,78.1z"/>
	<path class="st0" d="M64.4,37.4c1.3,0,2.6,0,3.9,0c3.9,0.1,6.5,2.4,6.7,6.3c0.1,2.4,0.1,4.9,0,7.4c-0.2,3.8-2.7,6.2-6.6,6.3
		c-2.8,0.1-5.6,0.1-8.4,0c-4.1-0.1-6.5-2.8-6.6-6.8c0-2.1,0-4.3,0-6.4c0-4.1,2.6-6.7,6.8-6.7C61.7,37.4,63.1,37.4,64.4,37.4z
		 M64.3,52.6c1.4,0,2.7,0,4.1,0c1.3,0,1.9-0.6,1.9-1.9c0-2.2,0-4.4,0-6.6c0-1.2-0.6-1.9-1.8-1.9c-2.8,0-5.6,0-8.4,0
		c-1.2,0-1.8,0.6-1.8,1.8c0,2.2,0,4.5,0,6.7c0,1.2,0.6,1.8,1.8,1.8C61.6,52.6,62.9,52.6,64.3,52.6z"/>
	<path class="st1" d="M64.4,74.5c-2.6,0-5.1,0-7.7,0c-2,0-3.1-0.9-3.1-2.4s1.1-2.5,3.2-2.5c5.1,0,10.1,0,15.2,0c2,0,3.1,0.9,3.1,2.4
		s-1.1,2.5-3.2,2.5C69.4,74.5,66.9,74.5,64.4,74.5z"/>
	<path class="st1" d="M92.8,69.7c2.6,0,5.2,0,7.9,0c1.8,0,2.9,0.9,2.9,2.4s-1.1,2.4-2.9,2.4c-5.2,0-10.5,0-15.7,0
		c-1.9,0-2.9-0.9-2.9-2.4s1.1-2.4,2.9-2.4C87.6,69.6,90.2,69.7,92.8,69.7z"/>
	<path class="st1" d="M149.8,69.7c2.6,0,5.2,0,7.9,0c1.8,0,2.9,0.9,2.9,2.4s-1,2.4-2.9,2.4c-5.2,0-10.5,0-15.7,0
		c-1.8,0-2.9-1-2.9-2.4c0-1.5,1.1-2.4,2.9-2.4C144.5,69.6,147.2,69.7,149.8,69.7z"/>
	<path class="st1" d="M121.3,69.7c2.6,0,5.2,0,7.9,0c1.8,0,2.9,0.9,2.9,2.4s-1,2.4-2.9,2.4c-5.2,0-10.5,0-15.7,0
		c-1.8,0-2.9-0.9-2.9-2.4s1.1-2.4,2.9-2.4C116.1,69.6,118.7,69.7,121.3,69.7z"/>
</g>
</svg>
