<?xml version="1.0" encoding="utf-8"?>
<!-- Generator: Adobe Illustrator 27.0.0, SVG Export Plug-In . SVG Version: 6.00 Build 0)  -->
<svg version="1.1" id="Слой_1" xmlns="http://www.w3.org/2000/svg" xmlns:xlink="http://www.w3.org/1999/xlink" x="0px" y="0px"
	 viewBox="0 0 512 512" style="enable-background:new 0 0 512 512;" xml:space="preserve">
<g>
	<path d="M252.5,507c-22.2-20.5-44.5-40.2-65.9-61c-37.2-36.1-71.8-74.5-100.1-118c-10-15.4-18.8-31.7-27-48.1
		C41.5,243.7,38.9,205.6,49,167c21-80.2,71.6-132.9,151.5-154.8c113.6-31.1,231.2,41.4,257.4,156.1c10.1,44.3,3.9,85.5-17.4,125.3
		c-19.7,36.8-44.5,69.8-71.8,101C333.4,434.9,294.8,471.9,252.5,507z M253.1,446.5c21.5-18.4,61.2-58.8,82.1-83
		c21.8-25.2,42.3-51.3,59.2-80.1c18-30.5,27.5-62.2,20.6-98.4C398.8,99,315.7,38.2,229.6,52.6c-69.9,11.7-115.3,53-135.4,121.1
		c-9,30.6-7.7,61.1,7.5,89.8c7.8,14.8,16,29.6,25.4,43.4c29.7,43.8,65.8,82.1,103.8,118.8C238.1,432.7,245.6,439.5,253.1,446.5z"/>
	<path d="M253.3,298.3c-45.6,0.2-83.2-37.2-83.4-82.9c-0.2-46.1,37-83.4,83.1-83.5c45.9-0.1,83.2,36.9,83.3,82.8
		C336.5,260.9,299.5,298.2,253.3,298.3z M211.8,214.7c-0.2,22.9,18.1,41.7,40.8,41.9c23.1,0.2,41.8-18,42.2-41.2
		c0.3-22.6-18.2-41.6-40.9-41.9C230.8,173.2,211.9,191.6,211.8,214.7z"/>
</g>
</svg>
