<?xml version="1.0" encoding="utf-8"?>
<!-- Generator: Adobe Illustrator 27.0.0, SVG Export Plug-In . SVG Version: 6.00 Build 0)  -->
<svg version="1.1" id="Слой_1" xmlns="http://www.w3.org/2000/svg" xmlns:xlink="http://www.w3.org/1999/xlink" x="0px" y="0px"
	 viewBox="0 0 297.5 429.2" style="enable-background:new 0 0 297.5 429.2;" xml:space="preserve">
<style type="text/css">
	.st0{fill:#F8F8F8;}
	.st1{fill:#F7F7F7;}
	.st2{fill:#F4F4F4;}
	.st3{fill:#FAFAFA;}
	.st4{fill:#EEEEEE;}
	.st5{font-family:'NexaScript-SemiBold';}
	.st6{font-size:72px;}
</style>
<g>
	<path class="st0" d="M946.8,148c1.4-0.6,2.9-1.1,4.5-1c3.2,0.2,5.5,2.7,5.6,6.3c0,1.5-0.2,2.9-0.4,4.8c2-0.8,3.2-2.2,4.1-3.9
		c1.7-3.2,2.3-6.8,3.5-10.1c1-3,3.7-4,6.6-2.6c1.2,0.6,1.2,1.4,0.8,2.5c-1.4,4.6-2.8,9.2-4.2,13.8c-0.2,0.8-0.8,1.8,0.1,2.3
		c0.9,0.5,1.5-0.5,2.1-1.1c3-2.9,4.5-6.7,5.5-10.6c0.4-1.7,0.9-3.5,1.4-5.2c0.7-2.2,2.5-2.8,5.3-2c2.2,0.6,1.8,2.1,1.4,3.7
		c-1.1,4.1-2.1,8.1-3.1,12.2c-0.2,1-0.9,2.4,0.3,2.9c1.1,0.5,2-0.6,2.8-1.3c2-1.8,3.2-4.2,4-6.7c0.9-2.9,1.7-5.8,2.6-8.7
		c0.7-2.3,2.3-2.9,5.2-2.1c2.2,0.6,2.2,2,1.6,3.8c-1.3,4.2-2.6,8.5-3.2,12.9c-0.1,0.7-0.5,1.7,0.3,2.1c0.8,0.4,1.4-0.5,1.9-1
		c1.7-1.7,3-3.8,4-6c0.6-1.2,1.3-1.8,2.5-1.1c1.2,0.7,1.2,1.5,0.6,2.7c-1.7,3.2-3.6,6.2-6.4,8.6c-1.6,1.3-3.4,2.2-5.6,2
		c-2.4-0.2-3.4-1.9-3.9-4.4c-2.3,2.3-4.5,4.2-7.6,4.6c-3.5,0.5-5.5-0.6-6.9-3.7c-1,0.1-1.4,1-2,1.5c-1.8,1.5-3.8,2.4-6.2,2.3
		c-2.2-0.1-3.9-1-4.5-3.4c-0.1-0.4,0.1-1.6-0.9-1.1c-2.3,1.3-5,0.9-7.3,2.7c-2.5,2-5.9,2.3-9.2,1.5c-2.6-0.6-4-2.4-4.9-4.9
		c-1.4,1.3-2.4,2.7-3.8,3.6c-1.5,1-3.1,1.5-4.8,1.5c-3,0-4.6-1.5-4.8-4.5c0-0.5,0-0.9,0-1.4c-0.1-1.2,1-2.8,0.1-3.5
		c-0.9-0.6-2.5-0.2-3.8-0.3c-1.4-0.2-1.9,0.5-2.2,1.8c-0.3,1.6-0.8,3.2-1.1,4.8c-0.3,1.8-1.2,2.9-3.2,2.9c-2,0-4.2,0.4-4.8-2.5
		c-2.8,2-5.9,3.1-9.3,2.5c-3.5-0.6-5.5-2.9-5.5-6.4c0-4.1,1.8-7.5,3.8-10.9c1.5-2.4,1.5-2.4-1.3-3.9c-0.4,1.4-0.7,2.7-1.1,4
		c-1.5,5.2-3.9,10-7.6,14c-1,1.1-2.1,2.1-3.5,2.7c-4.2,1.9-7.2,0.5-8.6-3.8c-3.1,0.9-6.3,1.6-9.1,3.5c-2.2,1.4-4.9,1.5-7.5,0.9
		c-2.6-0.5-4.3-2-5-4.6c-1-0.1-1.2,0.8-1.6,1.2c-1.5,1.4-3,2.7-5,3.3c-4,1.2-6.9-0.6-7.6-4.7c-0.5-3,0.3-5.9,0.2-9
		c-1.2,0.6-1.5,1.8-2,2.8c-1.4,2.7-2.6,5.5-3.6,8.4c-0.9,2.7-3.6,3.8-6,2.4c-0.8-0.5-1.4-0.6-2.3-0.3c-3.7,1.2-5.3,0.4-7.1-3.4
		c-0.8,0.7-1.6,1.5-2.5,2.1c-3.6,2.8-7.7,2.6-10.6-0.6c-0.6-0.7-0.9-0.5-1.4,0c-1.1,1.1-2.5,1.9-4,2.3c-3.9,1.1-6.4,0-8.3-3.9
		c-1.9,1.7-3.8,3.4-6.5,3.9c-2.9,0.5-4.2-0.3-5.9-4c-1.9,2.3-4,4.2-7.1,4.3c-3.2,0.1-5.5-1.3-7-4.5c-2,2.1-4.1,4-7.1,4.3
		c-3.2,0.3-5.2-1.2-6.3-4.3c-2.5,2.4-4.9,4.4-8.3,4.5c-3.4,0.1-6.1-1.1-7.6-4.5c-1.8,1.9-3.6,3.4-6,4.1c-5.8,1.6-10.2-1.6-10.2-7.7
		c0-3.6,1-7.1,2-10.5c1.1-3.6,2.2-7.3,3.4-11.6c-2.8,1.9-5.5,2.5-7.8,3.8c-2.4,1.4-2.4,3.4-0.2,5c0.9,0.7,1,1.5,0.8,2.5
		c-0.3,1.2-1,1.8-2.3,1.9c-2.8,0.1-5.8-1.5-6.8-4c-1.1-2.6-0.4-5.6,1.8-7.6c1.7-1.5,3.8-2.4,6-3.1c4.3-1.3,8.3-2.9,11.5-6.4
		c1.3-1.4,4.6-1.5,6.1-0.3c1,0.8,0.8,1.7,0.4,2.7c-2.5,8-5,16-7.1,24.2c-0.3,1-0.5,2.1-0.5,3.2c0,2.7,1.7,3.6,4,2.1
		c2.7-1.7,4.2-4.3,5.1-7.3c2.2-7.2,4.3-14.5,6.4-21.7c0.8-2.9,2.4-3.8,5.2-3c2.3,0.7,2.9,1.7,2.2,4c-2.2,7.5-4.4,14.9-6.6,22.4
		c-0.3,1.2-0.5,2.4-0.5,3.7c-0.1,2.5,1.4,3.4,3.7,2.2c1.8-0.9,2.9-2.6,3.9-4.2c2.6-4,3.5-8.6,4.8-13.1c1.2-4.1,2.3-8.2,3.5-12.4
		c0.7-2.5,2.5-3.4,5-2.6c2.4,0.7,2.8,1.8,2,4.5c-2.4,8.1-5.3,15.9-7,24.2c-0.3,1.3-1.1,3.1,0.4,3.8c1.4,0.7,2.5-0.9,3.4-1.9
		c1.7-1.7,2.9-3.8,3.8-6.1c3.5-8.6,12-12.9,20.4-10.5c1,0.3,2,0.8,3,1.3c1,0.6,2.2,1.1,2.1,2.5c-0.2,1.5-1.3,2.4-2.6,3
		c-0.4,0.2-1-0.2-1.2,0.7c-0.6,3-1.4,5.9-2,8.9c-0.2,0.7-0.4,1.7,0.4,2.1c0.7,0.3,1.3-0.3,1.8-0.7c2.3-2,4.2-4.4,5.1-7.4
		c0.8-2.8,1.6-5.7,2.4-8.5c0.7-2.3,5.4-3.2,7.1-1.5c0.7,0.8,0.2,1.6,0,2.4c-1.1,4.4-2.3,8.7-3.3,13.1c-0.2,0.9-0.7,2,0.3,2.6
		c1.1,0.6,1.9-0.4,2.6-1.1c2.3-2.3,3.4-5.2,4.2-8.2c0.7-2.5,1.4-5,2-7.4c0.3-1.3,1.2-2,2.4-2.1c1.6-0.1,3.3-0.4,4.7,0.8
		c0.7,0.7,0.2,1.6,0,2.4c-1.4,4.3-2.7,8.6-3.4,13.1c-0.1,0.9-0.6,2.1,0.4,2.5c1,0.5,1.9-0.5,2.6-1.2c1.7-1.8,3-4,3.7-6.4
		c0.9-3.1,1.8-6.1,2.6-9.2c0.3-1.4,1.1-2,2.4-2.1c1.6-0.1,3.3-0.3,4.6,1c0.7,0.7,0.2,1.6-0.1,2.4c-1.3,4.2-2.5,8.4-3.3,12.7
		c-0.2,1-0.6,2.3,0.3,2.8c1,0.5,1.7-0.7,2.4-1.4c1.4-1.2,2.1-2.9,2.9-4.5c2-3.9,4.5-7.4,7.2-10.9c1.9-2.5,5.7-2.4,7.7-1.7
		c1.3,0.5,1.3,1.5,1.2,2.7c-0.5,4-1,8-1.3,12.1c-0.1,1.4-0.6,3.4,1,4c1.6,0.6,2.8-1,3.8-2.1c1.8-2.1,3.2-4.4,3.8-7.1
		c0.7-2.7,1.4-5.4,2.3-8.1c0.7-2.1,5.3-2.9,6.7-1.2c0.6,0.7,0.2,1.5,0,2.2c-0.4,1.3-0.8,2.6-1.3,4.3c3.4-1.3,6.5-2.2,9.1,0.6
		c2.5,2.6,1.8,5.9,1.2,9.4c3.3-1.4,4.5-4.1,5.5-6.9c0.8-2.4,1.5-4.9,2.3-7.4c0.9-2.8,4.6-4,6.9-2.3c1,0.7,0.7,1.6,0.4,2.5
		c-1.4,4.5-2.8,9.1-4.1,13.6c-0.2,0.8-0.8,1.8,0,2.4c0.8,0.5,1.6-0.4,2.1-1c4.7-5.1,6.5-11.4,7.7-18c0.1-0.8-0.4-1.6-0.6-2.5
		c-0.3-1.8,1.1-3.9,2.7-4c2-0.1,2.9,1.1,3.2,3c0.5,2.7,2.2,4.3,5,4.4c3.1,0.2,4.3,2.2,2.7,4.9c-0.5,0.8-1,1.6-1.6,2.3
		c-1.2,1.7-2.3,3.5-2.9,5.6c-0.4,1.8-1.6,4,0.3,5.2c1.9,1.2,3.9-0.3,5.4-1.6c2.2-1.9,3.7-4.2,4.4-7c0.7-2.6,1.4-5.3,2-7.9
		c0.3-1.3,0.9-2.2,2.2-2.3c1.7-0.1,3.5-0.5,4.9,0.9c0.6,0.6,0.4,1.3,0.2,2c-0.5,1.8-0.9,3.6-1.4,5.4c-0.3,1-0.1,1.5,1,1.4
		c0.1,0,0.2,0,0.2,0c4.3,0.3,4.3,0.3,5.3-4c0.3-1.1,0.6-2.3,0.8-3.4c0.3-1.6,1.2-2.2,2.7-2.4c4.4-0.4,5.3,0.6,4.1,4.9
		c-1.1,3.9-2.2,7.8-3.2,11.7c-0.2,0.8-0.8,2,0.2,2.5c0.9,0.5,1.7-0.5,2.3-1.2c2.1-2.3,3.8-4.9,4.5-8c0.6-2.7,1.5-5.4,2.3-8.1
		c0.3-1.2,1.1-1.9,2.3-1.9c1.5,0,3.2-0.3,4.4,0.9c0.5,0.5,0.3,1.2,0.1,1.8c-0.4,1.3-0.7,2.5-1.1,3.8c-0.1,0.2-0.1,0.5-0.2,0.7
		C946.4,148.1,946.6,148,946.8,148z M786.3,146.9c-2.7-1.1-5.3-1.2-7.6,0.6c-3.4,2.6-5.1,6.2-5.4,10.4c-0.1,0.8-0.1,1.8,0.8,2.3
		c1,0.5,1.8-0.3,2.4-1c2.5-2.7,4.3-5.7,5.3-9.2C782.4,147.4,783.6,146.3,786.3,146.9z M945.9,160.4c1.6,0,2.3-0.6,2.5-2.3
		c0.1-1.1,0.6-1.9,1.6-2.4c1.1-0.7,1-1.7,0.6-2.7c-0.4-1.1-1.4-1-2.4-0.9c-2.6,0.5-4.9,4.1-4.2,6.7
		C944.2,159.8,944.8,160.4,945.9,160.4z M865.1,152c-3,0-5.8,4.6-4.6,7.3c0.5,1,1.2,1.2,2.1,1c0.9-0.2,2.1-0.2,2.1-1.4
		c0-1.6,0.5-2.6,1.8-3.5c0.8-0.5,0.7-1.5,0.4-2.3C866.7,152.2,865.9,152,865.1,152z"/>
	<path class="st1" d="M1105.8,156.7c-1.7,1.9-2.8,4-4.3,5.8c-1.2,1.5-2.6,2.5-4.6,2c-2-0.5-2.5-2.2-2.9-3.9
		c-0.4-1.8-0.5-3.7-0.7-5.6c-1.5,2.3-2.2,4.9-2.9,7.6c-0.5,2-1.5,2.9-3.5,3c-2.9,0.1-3.6-0.6-3.2-3.7c-2.5,0.4-5-0.1-7.4,1.7
		c-2.8,2.2-6.3,2.6-9.8,1.7c-2.8-0.7-5-2.4-5.7-5.3c-1.8-7.7,3.8-18.9,14.3-19.1c5.5-0.1,8.8,3,8.8,8.6c0,2.9-0.7,5.7-2.2,8.8
		c2.4-0.4,3.8-1.6,4.7-3.3c2.1-3.7,4.1-7.5,6-11.3c0.7-1.4,1.7-2.2,3.2-2.4c3.8-0.5,4.8,0.5,4.1,4.1c-0.7,3.6-1,7.2-0.9,11.1
		c1.1-0.5,1.4-1.3,1.7-2c1.7-3.6,3.4-7.2,5.1-10.7c1.2-2.5,4.8-3.5,7.1-2c1.1,0.7,0.9,1.7,0.7,2.7c-0.7,4.4-1.8,8.7-1.7,13.2
		c0,0.9-0.5,2.3,0.7,2.7c1.1,0.4,2.1-0.5,2.8-1.3c1.7-1.6,2.8-3.7,3.8-5.8c0.5-1.1,1.1-2,2.5-1.3c1.3,0.6,1.5,1.5,0.8,2.9
		c-1.3,2.6-2.7,5.1-4.7,7.2c-0.7,0.8-1.6,1.5-2.5,2.1c-4.9,3.3-8.9,1.5-9.4-4.4C1105.7,158.7,1105.8,157.7,1105.8,156.7z
		 M1068.2,157.2c0.1,1-0.3,2.9,1.9,3.1c1.8,0.2,3.1-0.6,2.9-2.8c-0.1-0.6,0.3-1.3,0.9-1.6c2.7-1.3,2.5-3.9,2.8-6.2
		c0.2-1.3,0.4-3-1.3-3.6c-1.6-0.6-2.9,0.3-3.9,1.5C1069.3,150.4,1068.2,153.4,1068.2,157.2z"/>
	<path class="st1" d="M1052.1,145.1c-0.1-1.4-0.1-2.8-0.4-4.2c-1.6-8.5-11-12.2-18-7c-2.9,2.1-4,5.3-2.6,8.4
		c0.8,1.7,0.1,2.7-1.1,3.6c-1.3,1-2.7,1.1-4-0.1c-3.4-3.1-3.7-8.7-0.5-12.7c3.7-4.7,8.9-6.4,14.6-6.6c12.3-0.5,20.2,8,19.2,20.4
		c-0.3,3.4-0.9,6.6-2.4,9.7c-4.3,9-12.7,11.7-21.4,6.9c-1.4-0.8-2.1-0.8-3.4,0.2c-3.5,2.7-7.5,2.7-11.5,1.2c-2.2-0.8-3.5-2.5-3.6-5
		c-0.1-2.6,0.9-4.7,3.3-6c2.7-1.5,5.6-1.5,8.4-0.3c2,0.9,2.4,0.1,2.9-1.6c1.3-4.6,2.5-9.3,4.6-13.7c0.7-1.4,1.5-2.7,2.6-3.9
		c1.5-1.6,3.3-1.5,5.1-0.6c1,0.5,1.4,1.2,0.7,2.3c-4.2,6.4-5,14-7.9,20.9c-0.4,0.9,0,1.2,0.7,1.7c5.5,3.6,10.9,1.9,13.2-4.2
		C1051.5,151.3,1052.1,148.3,1052.1,145.1z M1025.7,157.4c-1.2,0.1-2.2,0.4-2.3,1.6c-0.1,1.2,0.9,1.5,1.9,1.5c1.4-0.1,3-0.6,3-1.9
		C1028.4,157.6,1026.6,157.6,1025.7,157.4z"/>
	<path class="st2" d="M987,139.4c-1.8-0.2-3.6-0.5-4.8-2.3c-0.9-1.4-0.9-2.6,0.4-3.7c1.2-1,2.2-1.1,3.4,0.1c1.7,1.7,3.7,0.8,5.3-0.3
		c1.1-0.7,2-1.3,3-0.1c1.1,1.3,0.7,2.4-0.4,3.5C992.1,138.4,989.8,139.3,987,139.4z"/>
</g>
<g>
	<path class="st3" d="M222.4,326.8c0.2,0.8,0.8,1.1,1.5,1.2c3.2,0.9,6.2,2.1,9,3.7c1.7,0.9,3.5,1.1,5.4,1.2
		c4.4,0.3,7.5,6.3,5.3,10.1c-0.6,0.9-1.3,1.2-2.4,0.8c-1.8-0.8-3.6-1.4-5.2-2.7c-4.7-3.8-10.7-5.7-15.3-10.2
		c-0.6,1.6,0.3,2.2,0.9,2.7c4.7,4,9.5,8,15.3,10.6c2.5,1.2,4.8,2.8,6.9,4.7c1.9,1.7,2.6,3.6,1.9,6.1c-0.2,0.8-0.3,1.7-0.6,2.5
		c-0.6,1.2,0.3,3.4-1.7,3.6c-2.6,0.3-5.3,0.7-7.4-2c-4.7-6.2-9.7-12.1-14.6-18.2c-0.6-0.8-1.3-1.6-2.5-1.5c-0.1-0.1-0.2-0.2-0.3-0.3
		c0,0.2,0,0.4,0,0.5c1.1,3,3,5.4,5.3,7.5c3.2,3,5.8,6.5,7.7,10.5c1.8,3.6,0.6,5.3-3.5,5c-1-0.1-2-0.3-3-0.3c-1.2,0-1.8-0.5-2.3-1.6
		c-1.1-2.3-2.1-4.6-4.1-7.1c0.2,2.3,0.3,4.1,0.5,5.9c0.1,1.3-0.3,1.6-1.6,1.5c-4.5-0.3-6.6-2-7.7-7.7c-0.7-3.6-2.4-6.7-3.7-10
		c-0.2-0.5-0.4-1-1-1.2c-0.3,1.1,0.1,2,0.6,2.9c1.4,2.8,1.6,6,2.2,9c0.2,0.8-0.2,1.1-0.9,1.2c-0.8,0.1-1.5,0.3-2.2,0.6
		c-0.6,0.2-1.5,0.4-1.1,1.4c0.3,0.7,0.7,1.6,1.9,1.1c1-0.4,2.1-0.7,3.2-0.2c1.8,0.9,3.3,2,2.8,4.4c-0.3,1.5,0,3,0.6,4.5
		c1.8,5,1.6,9.9-1.5,14.5c-0.7,1-1.6,1.9-2.6,2.6c-2.1,1.4-4.1,1-5.4-1c-1.8-2.7-1.5-4.6,0.9-6.2c0.8-0.5,1.5-1.1,2.2-1.7
		c1.6-1.4,1.1-3.5-0.9-4.1c-3.4-1-5.3-3-5.2-6.7c0-0.6,0.1-1.5-0.8-1.4c-1.3,0.3-2.3-1.8-3.6-0.3c-1.4,1.6-2.8,3.1-4.1,4.8
		c-0.7,0.9-1.4,1.1-2.3,0.3c-1.2-1.1-3.7-1.3-3.6-3.2c0.2-3.1,1.6-5.9,4.5-7.5c2.9-1.7,6.1-1.8,9.3-1.7c1.9,0.1,2.1-0.4,1.7-2.2
		c-0.7-3.2-0.9-6.4-1.4-9.8c-1.7,0.3-2.8,1.4-4.1,2.4c-7.4,6.1-14,13.1-21.1,19.5c-2.2,2-4.5,4.1-6.9,5.9c-1.1,0.8-1.1,1.5-0.9,2.5
		c0.9,3.9,2.7,7.3,5.1,10.4c3.7,4.8,3.8,8,0.3,13.2c-1.4-1.6-2.8-3-3.2-5.2c-0.5-2.6-2-4.7-3.9-6.5c-0.2-0.2-0.4-0.4-0.6-0.6
		c-0.3,0.3-0.1,0.7,0,1c0.7,3.5,2,6.6,4.2,9.5c2.5,3.2,2.5,8.4-0.2,11.3c-1.9,2.1-2.9,4.5-3.8,7.1c-0.7,1.9-1.7,3.6-3.4,4.9
		c-1.2,0.9-2,0.9-2.5-0.8c-0.7-2.6-1.6-5.2-2.4-7.8c-0.4-1.3-0.9-2.3-2.7-2.5c0.4,2.4,0.7,4.7,1.1,7c0.6,3.7,1.2,7.4,1.9,11
		c0.2,1.2,0.1,1.7-1.3,1.7c-4.1-0.1-8.2-0.1-12.4,0c-1.5,0-1.6-0.6-1.3-1.8c1.3-6.3,3.1-12.5,3.7-19c0.3-2.9,0.8-5.7,1.6-8.4
		c0.2-0.5,0.4-1.1,0.3-1.6c0-0.6,0.1-1.6-0.8-1.7c-0.8-0.2-1.2,0.6-1.4,1.3c-0.3,1.7-0.6,3.4-0.8,5.1c-0.8,6-2.2,11.9-3.4,17.9
		c-0.3,1.4-0.6,3.3-2.2,3.6c-1.6,0.3-2.6-1.4-3.6-2.6c-2-2.3-2.6-4.7-1-7.6c1.9-3.3,2.7-7.1,3.8-10.7c1.1-3.6,3.2-6.9,3.8-10.7
		c0.2-1.3,0.8-2.5,0.2-4.5c-1.2,2.5-2.3,4.4-2.9,6.4c-1.8,5.4-3.5,10.8-5.4,16.1c-0.7,1.8-1.4,1.6-2.6,0.7c-1.6-1.2-2.3-3.1-3.3-4.7
		c-1.2-2-0.1-3.5,0.7-5.2c0.3-0.7,0.5-1.5,0.7-2.2c0.1-0.2,0.1-0.4,0.2-0.6c-0.2,0.1-0.3,0.1-0.5,0.2c-2.5,1.9-3,1.7-4.1-1.1
		c-1.2-3-0.8-5.4,1-8c2.2-3.2,4.4-6.4,6.2-9.8c1-1.8,0.9-2.8-0.9-4.3c-5.8-4.9-11.2-10.3-16.8-15.6c-3.7-3.6-7.3-7.2-11.4-10.3
		c-1.4-1.1-2.7-2.3-4.8-2.5c0.3,3.3-0.5,6.4-1.5,9.4c-0.4,1.2-0.1,1.5,1.1,1.5c2.1,0,4.2,0.1,6.3,0.4c4.1,0.5,7.1,3.8,7.5,7.8
		c0.2,2-2.8,5.1-4.8,4.9c-0.6-0.1-0.8-0.4-1.1-0.8c-0.6-0.9-1.3-1.8-1.9-2.7c-2-3.1-2.1-3.1-5.6-2.1c-1,0.3-1.2,0.7-1.2,1.6
		c0,0.7,0,1.4,0,2.1c-0.3,2.9-0.8,3.4-3.7,3.7c-3.3,0.4-3.3,0.4-3.2,3.6c0,1,0.4,1.5,1.3,1.9c0.9,0.4,1.8,1,2.7,1.3
		c1.1,0.4,1.2,1,1.1,2c-0.4,3.4-1.7,5.5-3.7,5.9c-1.9,0.4-4.2-1.3-5.6-4.2c-2.3-4.5-2.1-9.3-1.1-14.1c0.1-0.8,0.3-1.5,0.3-2.3
		c0-1.3,0.4-3-0.3-3.9c-0.8-1.1-2.4,0.1-3.6,0.2c-2.6,0.1-3.4-0.7-2.9-3.3c0.5-2.7,2.7-4.7,3.5-7.3c0.3-1.1,1.2-2,0.9-3.3
		c-3.1,2.3-3.1,2.3-4.3,5.8c-0.6,1.7-1.3,3.3-2.1,4.9c-2.3,4.4-5.6,5.8-10.3,4.5c-0.8-0.2-0.7-0.6-0.7-1.2c0.1-1.9,0.9-3.4,2-4.9
		c1-1.3,2.1-2.5,2.4-4.2c0.4-0.4,0.7-0.9,0.3-1.4c-0.3-0.4-0.7-0.1-0.9,0.2c-2.7,1.2-4.1,3.5-5.6,5.8c-2.1,3.1-4.5,5.3-8.6,4.8
		c-2.2-0.3-3.6-1.1-4.2-3.6c-0.9-4.2,0.3-7.5,3.7-10c2.1-1.5,4.6-2.6,6.1-5.2c-1.6-0.1-2.7,0.7-3.9,1.1c-2,0.7-2.9-0.1-3.4-2
		c-0.9-4,0.7-7.1,4.5-8.7c0.5-0.2,1.1-0.5,2.3-1c-5.8-1.1-3.3-4.6-2.9-7.3c0.5-3,3.5-1.7,5.4-2.7c-0.8-1.3-2.6-1.9-2.5-3.9
		c0.1-1.8,0.8-3.2,1.7-4.7c0.6-0.9,1.3-1.2,2.3-1.3c2.2-0.2,4.5-0.6,6.7-0.7c2-0.1,1.9-0.9,1.1-2.3c-3.8-6.5-7.6-13-11.3-19.6
		c-3.9-7-8-13.9-10.6-21.5c-0.4-1.2-0.9-1.2-1.9-0.9c-1.4,0.4-2.2,1.4-2.8,2.6c-0.9,1.9-1.8,3.8-2.7,5.7c-1.1,2.5-3.1,1-4.6,0.9
		c-1.6-0.1-2.3-1-2-2.7c0.3-1.3,0.4-2.6,0.6-3.9c-0.2-0.1-0.4-0.3-0.5-0.4c-0.9,1.1-1.8,2.3-2.8,3.2c-1.9,1.8-6.7,1-8.1-1.2
		c-0.3-0.5-0.1-0.9,0-1.3c0.4-1.9,1.5-3.4,3-4.5c1-0.7,1.9-1.5,2-3.1c-1.3,0.3-1.9,1.3-2.7,1.9c-1.6,1.4-3.1,2.8-5.1,3.7
		c-2.1,0.9-4.1,0.6-5.9-0.9c-1.7-1.5-2.6-3-1.6-5.3c0.1-0.3,0.1-0.6,0.2-0.9c-0.1-0.1-0.3-0.3-0.4-0.2c-5.3,2.8-8.8-0.7-12.6-3.4
		c-0.6-0.5-0.5-1.1-0.5-1.7c0-2.6,1-4.8,2.5-6.9c2.4-3.4,4.7-6.9,5.5-11.2c0,0,0,0,0,0s0.1,0.1,0.1,0.1c3.3-4.5,3.3-4.4,8.6-2.4
		c4.9,1.8,9.9,2.5,15.1,1.3c1.1-0.2,2.8-0.6,2.7-1.8c-0.1-1-1.8-0.9-2.8-1c-4.7-0.5-9.5-0.1-14.2,0c-1.7,0-2.9-0.2-3.6-1.9
		c-0.2-4.9,2.6-7.1,7.9-6.1c0.8,0.2,1.7,0.4,2.5,0.6c0.3,0.3,0.7,0.5,0.9,0.1c0.2-0.2-0.1-0.5-0.3-0.7c-0.2-0.3-0.5-0.8-0.7-0.8
		c-2.8-0.3-2.6-2.5-2.6-4.3c0-2.7,2-4.1,4.6-3.2c2.3,0.8,4.5,1.7,6.8,2.5c1.7,0.6,2.3,0.2,2.2-1.8c-0.9-12-1.7-24.1-2.6-36.1
		c-0.3-3.8,0.1-7.6-0.5-11.4c-0.5-3.3-1.3-4.1-4.7-4.3c-1.6-0.1-2.9-0.6-3.9-1.7c-2.3-2.7-3.6-5.8-3.6-9.4c0-2.1,0.8-3.9,2.4-5.1
		c2-1.6,1.5-2.2-0.6-2.9c-1.2-0.4-2.2-1.2-3.1-2.1c-2.4-2.4-2.7-4.9-0.8-7.8c0.7-1,0.8-1.3-0.4-2c-3.9-2.5-4.1-6.8-4.4-10.8
		c-0.1-1.6,2-0.8,2.6-2c-5-1.8-6-6-6.1-10.7c0-0.7,0-1.3,0.9-1.6c2.6-0.9,5-2.2,7.7-2.8c2-0.4,3.5-0.2,4.6,1.6
		c0.3,0.4,0.6,0.9,1.2,0.9c1.5-5.3,5.2-7.4,10.6-6.2c0.9,0.2,1.1,0.8,1.3,1.4c1.2,2.4,2.3,4.8,3.5,7.1c0.3,0.7,0.7,1.4,1.6,1.9
		c0.2-2-0.4-3.7-0.8-5.3c-1.4-5.8-1.1-6.2,4.4-7.6c4.3-1,5.7-0.1,6.2,4.4c0.3,3.2,0.4,6.4,0.7,9.5c0.1,0.7-0.3,1.8,0.9,1.8
		c1.3,0.1,1.1-1.1,1.2-1.9c1-8.5,4-16.3,9.2-23.2c1.5-2,3.3-3.8,5.3-5.3c5.9-4.4,12.1-5,18.6-1.4c3,1.7,5.7,3.8,7.8,6.5
		c2.9,3.7,3,8.1,2.7,12.5c0,0.6,0,1.2,0,2.3c0.9-1.1,1.5-1.9,2.2-2.7c4.6-5.4,10-6.6,16.2-3.4c2,1,3.9,2.2,5.8,3.5
		c1.1,0.7,1.8,0.8,2.7-0.3c2.4-2.7,2.9-2.6,5.2,0.1c1.2,1.5,2,3.1,2.3,5c0.1,0.7,0.2,1.4,0.6,2c0.5,0.9,1.3,1.8,2.4,1.5
		c1-0.2,0.7-1.4,0.8-2.2c0.3-2.6-0.6-4.7-2.4-6.5c-1.8-1.8-3.9-3-6-4.4c-3.9-2.5-4-6.7-0.5-9.8c0.7-0.6,3-0.3,1.6-2.4
		c-1.4-2.1-3.2-2.9-5.1-2c-1.6,0.7-2.8,1.9-4,3.2c-1,1.1-1.7,1-2.6-0.1c-2.9-3.4-3.6-7.4-1.7-10.8c2.1-3.7,5.9-5.2,10.4-4.2
		c2,0.4,3.9,1,6,1.6c-0.3-2.9-1.3-5.4-3.2-7.4c-1.4-1.4-3.1-1.6-5-1.3c-2.4,0.5-4.5,1.6-6.8,2.5c-4.6,1.9-6.5,0.7-7-4.3
		c-0.1-0.9,0.6-2.3-0.7-2.6c-1.3-0.3-2.5,0.4-3.4,1.6c-3.1,4-3.2,8.3-1.6,12.8c0.3,0.8,0.7,1.6,1,2.4c0.4,1.2,1,2.4-0.1,3.5
		c-1.1,1.1-2.4,0.6-3.5,0.1c-5.5-2.3-9.1-8.5-7.6-13.5c0.1-0.3,0-0.6,0.1-1.1c-1.8,0.2-2.5,1.5-3.4,2.6C86,78,79.3,83,70.6,84.9
		c-9.7,2.1-18.7-3-21.5-11.9c-1.8-5.9,0.2-11.4,5.3-14.6c5.6-3.4,12.2,0.1,12.6,6.6c0.1,2.4-1.2,4.1-4,5c-1.1,0.4-2.8,0.3-3,1.4
		c-0.3,1.4,1.5,1.8,2.3,2.6c3.6,3.1,7.5,3.3,11.7,1.5c4-1.8,7.1-4.7,10.3-7.5c1-0.9,2-1.8,3-2.5c0.8-0.5,0.9-1.2,0.8-2
		c-0.1-1.1-1-0.7-1.6-0.8c-1-0.2-2-0.2-3-0.5c-5-1.4-7.2-6.6-4.9-11.2c0.5-1.1,1.4-1.6,2.5-1.3c6.8,2,13.4,0,20.1-1.1
		c3.8-0.6,3.8-0.6,1.9-3.9c-1.4-2.4-1.4-4.9-0.4-7.4c0.8-1.9,2.2-2.5,4.2-1.7c2.5,1,4.6,2.7,6.4,4.7c8.5,9.2,17.7,17.8,25.4,27.7
		c0.2,0.2,0.4,0.5,0.9,1.1c-0.2-4.2-1.7-7.5-3.5-10.6c-4-7.1-8.9-13.5-15.1-18.9c-4.4-3.8-4.6-6.2-1.5-11.1c0.2-0.3,0.4-0.7,0.6-1
		c1.3-2.7,1.5-2.8,3.8-0.8c2.2,1.9,3.8,4.3,5.4,6.7c3.1,4.7,6.1,9.4,9.2,14.1c0.6,0.9,1.4,2.5,2.5,2c1.5-0.7,0.6-2.4,0.3-3.6
		c-1.8-5.5-4.7-10.5-7.7-15.4c-1.9-3.3-4-6.5-6-9.7c-0.6-0.9-0.7-1.8-0.4-2.8c0.9-3.2,2.4-5.9,5.4-7.6c1.3-0.7,2.1-0.8,2.9,0.8
		c3.5,7,6.6,14.3,8.2,22c0.2,0.8,0,2,1.3,1.8c1.3-0.1,0.8-1.3,0.8-2.1c0-8.6-0.4-17.1-2.2-25.5c-0.1-0.6-0.2-1.2-0.3-1.8
		c-0.3-2.6,0.2-3.3,2.6-3.7c2.8-0.4,5.6-0.3,8.4-0.2c1.9,0,2.4,1.3,2.2,2.9c-0.3,4-0.7,8.1-1.1,12.1c-0.6,5.5-1,11-0.9,16.8
		c1.7-1.2,2.1-3,2.6-4.5c1.6-5,3.5-9.8,5.8-14.5c2.1-4.3,3.4-4.5,7.1-1.3c4.7,4.1,4.9,5.2,1,10c-5.7,7.1-9.8,15.1-12.8,23.7
		c-0.5,1.5-0.6,3-0.9,4.6c0,0.2-0.1,0.5,0,0.6c0.3,0.2,0.3-0.1,0.4-0.3c3.3-5.3,6.6-10.5,9.8-15.8c2.3-3.7,5-6.9,8.2-9.8
		c0.9-0.8,1.4-0.8,2.3,0c3.3,2.8,4,6.5,4,10.5c0,1.3-1.2,1.8-2,2.4c-7,4.8-11.5,11.7-16,18.6c-1.5,2.3-2.6,4.9-3.2,8
		c1.9-1.1,2.7-2.7,3.8-4.1c7.5-9.1,16-17,25.9-23.3c1.3-0.8,2.7-1.5,4.2-1.9c2.3-0.5,3.3,0.4,3,2.7c-0.5,2.9-1.7,5.5-3,8.1
		c-0.1,0.3-0.2,0.6-0.4,1.1c7.4,0.7,14.4,3.5,21.9,1.9c3.6-0.8,4.7,0.2,5.2,3.8c0.6,4.2-1.2,7.2-5.4,8.6c-1.3,0.5-2.7,0.8-4.1,1
		c-1.1,0.2-1.6,0.5-0.7,1.6c4.7,5.7,10.2,10,17.6,11.5c4.4,0.9,8-0.9,9.3-4.3c0.4-1.1,0.5-1.8-1-1.7c-4,0.1-5.3-1.6-5.2-5.2
		c0.2-4.8,2.6-7.7,6.4-7.7c4.7,0,8.1,2.6,10.4,6.4c2.5,4.2,2.1,8.4-0.4,12.3c-2.7,4.1-6.4,7-10.9,8.9c-3,1.3-6.1,0.6-9.2,0.2
		c-1.4-0.2-2.7-0.4-4.3-0.3c5.6,3.9,11,7.8,14.1,14.1c3,6.1,4.2,12.8,5.7,19.6c1.4-1.6,1.5-3.4,1.6-5.1c0.3-2.6,0.3-5.1,0.6-7.7
		c0.3-2.7,2.1-3.9,5.7-4c2.8-0.1,4.5,1.2,5,3.9c0.5,2.8-0.4,5.4-0.9,8c-0.2,0.8-0.7,1.6-0.4,2.6c2.2-2.1,3-4.8,4-7.3
		c2-5.4,0.7-4.5,6.4-3.9c0.8,0.1,1.7,0.3,2.5,0.6c2.9,0.9,3.8,2.7,2.5,5.6c-0.4,1-1.1,1.9-0.9,3.2c2.5-0.9,3.8-2.8,4.8-4.8
		c0.6-1.2,1.3-1.6,2.7-1.3c2.7,0.5,5.1,1.8,7.6,2.8c0.8,0.3,0.8,0.8,0.8,1.4c-0.1,1.9-0.1,3.7-0.3,5.6c-0.2,2.5-1,4.5-4.1,4.8
		c-1.3,0.1-2.3,1.1-2.9,2.4c0.4,0.8,1.1,0.4,1.7,0.4c3.3,0.1,3.3,0,2.9,3.4c-0.4,3.6-1.4,6.8-5.8,7.9c3.7,2.7,1.6,5.7,0.7,8.5
		c-1.2,3.8-4.5,3.3-8,3.6c1.9,1.3,3.5,2.3,4.7,3.7c1.3,1.5,1.9,3.2,1.7,5.2c-0.5,4.6-5.1,9.2-9.7,9.6c-1.9,0.2-2.8,1.1-3,2.9
		c-0.2,1.5-0.3,3-0.3,4.4c0.4,12.5-1.3,24.9-1.8,37.3c-0.1,2.4-0.3,4.8-0.5,7.2c-0.2,1.5,0.4,1.8,1.7,1.4c1.7-0.5,3.3-1.4,4.9-2.2
		c3.4-1.8,7.8,0.9,7.6,4.7c-0.1,1.8,1.1,2.3,2.3,2.7c2.5,0.8,3.8,2.6,4.5,4.9c0.3,0.9,0.1,1.4-0.7,1.9c-2.5,1.4-5.1,1.9-7.9,1.4
		c-3.2-0.5-6.5-1-9.7-0.3c-1,0.2-2.4,0.2-2.3,1.5c0.1,1.4,1.6,1.3,2.6,1.2c6.2-0.7,12.4-0.7,18.5-2c1.6-0.3,2.5,0,3.4,1.5
		c1.1,1.8,2.1,3.6,2.6,5.7c0.5,2.1,1.7,3.8,2.9,5.5c0.9,1.2,1.7,2.4,2.4,3.7c2.6,4.5,2.4,5.7-1.4,9.4c-2.7,2.7-5.7,3-9.4,0.9
		c-0.9-0.5-1.8-1.2-2.7-1.8c-0.1-0.1-0.3-0.1-0.4-0.2c0,0.2,0,0.4,0,0.5c0.1,1.2,0.6,1.9,1.7,2.6c1.4,0.9,1.6,2,0.5,3.5
		c-2.7,3.5-5.1,4-8.8,1.5c-1.4-0.9-2.7-1.9-4.5-2.5c0.7,1,1.5,1.8,2,2.9c0.7,1.5,1.8,3.2,0.2,4.6c-2.5,2.3-4.9,2.5-6.9,0.8
		c-0.8-0.6-1.5-1.4-2.2-2.1c-0.2-0.1-0.4-0.3-0.5-0.2c-0.4,0.2-0.2,0.5,0,0.7c0,1,0.4,2-0.5,2.8c-1.4,0.7-2.2,2-3.4,2.9
		c-1.4,0.4-2.3,0-2.9-1.5c-0.9-2.5-2.1-4.9-3.1-7.3c-0.5-1.1-1.2-1.8-2.4-2c-0.9-0.1-1.4-0.1-1.7,0.9c-5.3,14-12.8,26.9-21.2,39.3
		c-2,3-1.8,3.4,1.7,4.5c0.7,0.2,1.4,0.5,2,0.4c3.3-0.2,6.2,0.2,7.1,4.7c0.7-2.6,0.7-2.6-0.7-4.9c-2.5-4-3.4-8.3-1.6-12.9
		c0.3-0.8,0.8-1.6,1.3-2.2c1.3-1.5,2.9-2.9,5-2c2.1,0.8,2.2,3,2.5,4.9c0.1,0.7-0.2,1.2-0.7,1.6c-0.4,0.3-0.8,0.5-1.1,0.8
		c-1,0.8-1.9,2-1.6,3.2c0.3,1.3,1.7,2,3.1,2.2c2.6,0.4,4.7,1.1,5.4,4.1c0.3,1.4,2.4,1.9,3.7,1.1c1.4-0.8,2.1-2.2,2.6-3.7
		c0.6-1.7,1.7-2.6,3.5-2.4c1.9,0.3,3.1,1.4,3.4,3.3c0.4,2.3-0.6,4.1-2.2,5.6c-2.4,2.5-5.6,3.6-8.9,4.4c-2.6,0.6-5.4,0.8-8.1,1.1
		c-2,0.2-3.5-0.3-4.2-2.3c-0.1-0.4-0.5-0.8-0.9-1.2c0.4,2.5-1.6,3.2-3.3,4.1c0.7,1,1.5,0.7,2.2,0.8c3.7,0.9,5.4,4.7,3.7,8
		c-0.6,1.2-1.3,0.5-1.9,0.3c-5.1-1.8-10.2-3.7-15.3-5.5c-1.3-0.7-2.5-1.3-3.8-2c-0.4-0.2-0.8-0.7-1.2-0.1c-0.3,0.5-0.3,1,0.2,1.5
		C219.7,325.7,220.9,326.4,222.4,326.8z M234,129.5c-1.5,0.2-2.2,1.2-2.9,2.1c-0.9,1.1-2,1.3-3.3,0.9c-3.9-1.2-4.8-3.2-2.7-6.8
		c0.7-1.3,1.6-2.5,2.4-3.7c1.4-2.1,2.7-4.2,3.5-6.6c2.5-7.4-0.9-16.2-7.6-19.6c-7.4-3.7-14.7,0.5-15.1,8.8c-0.1,2.5,0.3,5,1,7.4
		c1,3.6,5.7,5.1,8.7,2.9c1.5-1.1,1.4-2.2-0.3-2.9c-1.4-0.6-3-0.7-4.5-1.2c-2.9-1.1-3.6-3.4-1.7-5.9c2.9-4,8.4-4.3,11.8-0.8
		c6.3,6.5,4.8,15.3-3.5,19.6c-1.2,0.6-3.1,0.3-3.5,1.9c-0.3,1.4,0.1,2.9,0.2,4.4c0.1,1,0.2,2,0.3,3c0.8,6-0.8,11.2-4.2,16.1
		c-1.7,2.4-3.2,4.9-4.9,7.4c-0.9,1.2-1.4,3.6-2.8,3.4c-1.7-0.2-2.6-2.3-3.2-4c-0.1-0.1-0.1-0.3-0.2-0.4c-0.3-1.5-1.2-1.6-2.6-1.2
		c-3.9,1.3-7.9,2.4-12.1,2.4c-4.9,0-5.5-0.5-4.4-5.3c0.4-1.7-0.2-2.2-1.5-2.9c-6-3.2-10.8-7.6-13-14.3c-0.8-2.6-0.7-2.6,2-2.7
		c0.5,0,1.5,0.6,1.5-0.7c0-3.8-2.3-6.6-6.1-6.9c-3.9-0.4-7.9-0.6-11.9-0.6c-6.4,0-12.9-1.5-19.3,0.1c-1.8,0.4-4.1-0.4-5.2,1.2
		c-1,1.5-1.1,3.7-1.5,5.6c0,0.2-0.1,0.3-0.1,0.5c-0.2,0.7,0.2,0.9,0.8,1c2.2,0.5,2.7,1.5,1.8,3.6c-2.4,5.3-6.2,9.3-11.1,12.2
		c-1.3,0.8-2.8,1.5-3.7,2.8c-0.3,0.5-1.1,1.1-0.1,1.7c1.4,1,0.6,2.2,0.3,3.3c-0.3,1.3-1.6,1.2-2.5,1.1c-4-0.1-7.9-0.9-11.8-1.7
		c-1.4-0.3-2.8-1-4.1-0.7c-1.7,0.3-0.9,2.5-1.8,3.6c-0.6,0.8-0.6,2.4-1.6,2.3c-1.2-0.1-2.3-1.2-3-2.3c-0.1-0.1-0.1-0.3-0.2-0.4
		c-1.1-3.3-3-6.2-5-9c-3-4.3-4.3-9-3.9-14.1c0.2-2.6,0.5-5.1,0.9-7.6c0.2-1.1,0.1-1.8-1.1-2.1c-0.9-0.2-1.8-0.6-2.6-1
		c-9.2-4.4-9.9-15-1.5-20.8c4.7-3.2,9-1.5,10.2,4c0.6,2.6-0.2,4-2.8,4.7c-1.3,0.4-2.6,0.6-3.8,1.2c-1.7,0.8-1.7,1.9-0.1,2.9
		c2.7,1.8,4.7,1.5,6.6-1.1c2-2.7,2.7-5.7,2.8-9c0.1-5.1-2-8.8-5.9-10.5c-4.2-1.8-9-0.7-12.4,2.9c-3.6,3.8-4.5,8.5-4.7,13.6
		c-0.2,5.3,1.5,9.5,6.8,11.6c0.7,0.3,1.7,0.5,1.7,1.4c0.1,2.4-0.2,4.7-1.8,6.6c-1.4,1.7-3.3,1.6-5.2,1.1c-1.6-0.5-3.1-1.3-4.7-2
		c0.6,5,2.4,9.1,7.8,10.5c1.3,0.3,2.5,1.2,3.8,1.8c0.5,0.3,1.1,0.5,1,1.4c-0.4,3.5-1.3,6.6-4.5,8.5c-2.8,1.7-5.4,0.6-7.7-1.3
		c-2.1-1.7-4.1-3.4-6.4-5.4c0.1,3.7,0.9,6.6,2.8,9.3c0.8,1.1,1.6,2.1,2.2,3.3c1.3,2.6,0.8,4.8-1.6,6.8c-2,1.6-4.3,1.5-6.6-0.4
		c-2.2-1.8-3.1-4.2-3.5-6.9c-0.2-1.7,0.1-3.5-0.7-5.3c-0.5,0.6-0.8,0.9-1,1.3c-2,3.1-3.4,6.7-6,9.4c-2.1,2.2-2.9,4.7-3,7.6
		c-0.2,5.2,0.5,10.4,0.9,15.6c0.7,9.1,0.6,18.2,1.7,27.3c2.1,17.4,6.7,34.3,12.9,50.7c3.8,10,9.1,19,14.6,28.1
		c7.4,12.2,14.3,24.6,22.9,36c14.3,19.2,33.9,32.4,52.2,47c2.9,2.3,4.4,1.9,7.4-0.8c5.5-4.9,11.1-9.8,16.6-14.7
		c8.7-7.8,17.6-15.4,26-23.4c15.2-14.4,25.4-32.5,35.6-50.3c7.1-12.3,12.4-25.6,16.4-39.3c6.6-22.5,8.6-45.5,9-68.8
		c0.1-8.2-1.6-15.2-6.9-21.4c-0.6-0.6-0.7-1.7-1.8-1.9c-0.4,1.5-0.8,2.9-1.3,4.3c-0.5,1.5-1.1,2.9-1.9,4.2c-2.2,3.1-4.6,3.7-7.8,1.8
		c-2.8-1.6-3.1-3.4-1.4-7c1.4-2.9,3.1-5.6,4-8.7c0.4-1.6,1.1-3.1,0.5-5.1c-2.1,2.4-3.9,4.7-5.9,6.7c-2.8,2.7-6.3,2.7-8.9-0.2
		c-5.1-5.7-5.2-8.7,2.5-11.4C232.4,137.3,234.1,134.8,234,129.5z M199.9,108.9c-1.8-15.6,6-23.1,20.9-25.3
		c-6.7-4.6-11.6-10.2-17-15.6c-0.6,1.5-0.2,2.3-0.1,3.1c0.5,6.4-2.8,10.9-9.1,12.3c-2.3,0.5-2.5,0.3-2-2c0.7-2.9,1.6-5.7,2.1-8.6
		c0.8-4.6-2.1-9.6-5.8-10.7c-0.1,1-0.1,2-0.3,3c-0.1,1-0.3,2-0.6,3c-1.1,3.5-2.9,4.1-5.8,2c-1-0.7-2-1.5-3.1-2
		c-2.6-1.3-5.1-1.2-7.5,0.4c-3,2-4.9,4.9-6.7,8.5c2.9-0.9,5.2-2.4,7.8-2.7c4-0.6,7.9,1.3,9.9,5c1.7,3,1.1,6.2-1.6,9.4
		c-1.2,1.4-2.1,1.8-3.4,0.2c-0.9-1.1-1.8-2.3-3.1-2.8c-1.8-0.6-3.9-0.1-5,1.1c-1.1,1.1,0.4,2.7,1.3,3.8c1.3,1.6,2,3.3,2.4,5.2
		c0.3,1.4-0.1,2.2-1.3,2.8c-2,1.1-4.1,2.3-5.8,3.9c-2.3,2.1-4.3,4.3-4.9,7.4c-0.2,1.2-0.2,2.5,1.2,2.9c1.4,0.4,1.7-1,2.2-1.9
		c1.2-2.5,2.2-5.1,4-7.4c1.3-1.8,2.5-1.4,3.8-0.1c0.5,0.5,0.9,1.1,1.2,1.7c0.5,1.3,1.1,1.1,2,0.3c1.9-1.6,3.9-3.1,6.1-4.2
		c5.3-2.8,9.5-2.2,13.8,2C196.9,105.3,198.2,107,199.9,108.9z M97.5,112.3c-0.9,0.4-1,1-1.3,1.6c-1.3,2.8-2.5,5.8-5.2,7.6
		c-2.3,1.6-2.9,3.7-2.6,6.3c0.2,2.3,1.3,4.3,2.7,6.1c3.9,5.1,9,5.8,15,5c11.5-1.5,18.9-14.3,14.1-24.9c-1-2.3-2.6-4-5.1-4.3
		c-2.5-0.4-5.3,0-6.9,2c-1.6,1.9,0.7,3.5,1.6,5.1c0.1,0.2,0.3,0.4,0.4,0.6c1.1,2.2-0.2,5.2-2.5,5.9c-4.3,1.2-8.2-1.2-9.6-5.8
		C97.7,115.9,97.7,114.2,97.5,112.3z M200.9,114.9c-0.5,1.6-0.8,2.7-1.2,3.7c-2.3,5.9-6.7,5.5-11.1,4.1c-0.6-0.2-0.7-0.7-0.9-1.2
		c-1.2-2.6-0.2-4.6,1.4-6.6c0.7-0.9,2-1.8,0.4-3.1c-4.3-3.7-9.8-2.5-12.1,2.7c-1.6,3.7-1.5,7.6-0.4,11.4c3.5,12.4,18,17.4,27.8,9.7
		c4.6-3.6,5.4-8.6,2-13.3C205.1,119.8,203.1,117.6,200.9,114.9z M80.2,322.9c-1.5,0.6-2.8,0.6-3,2.1c-0.1,0.5-0.4,0.7-0.9,0.8
		c-3.8,0.7-7.3,2.5-11,3.6c-1.8,0.5-2.4,1.4-1.8,3.4c4.7-2.1,10.2-2.3,13.7-6.8c0.1-0.1,0.4-0.2,0.6-0.2
		C80.4,326.7,79.6,324.6,80.2,322.9z M24.1,138.6c3.8,5.6,9.9,7.5,16,9.3C35.8,143,30.1,140.7,24.1,138.6z M259,146
		c2.2,0.7,3.7,0.2,5.2-0.5c2.7-1.3,5.4-2.7,8-4.1c1-0.5,2.7-1.2,2.3-2.2c-0.6-1.3-2.3-0.8-3.6-0.3c-0.1,0.1-0.3,0.1-0.4,0.2
		C266.7,141,263,143.3,259,146z M64.4,342.5c0.2,0,0.3,0.1,0.4,0.1c5.7-2,9.5-6.8,14.3-10.1c0.6-0.4,0.2-0.8-0.3-1
		c-0.7-0.2-1.1,0.2-1.7,0.6c-3.6,2.4-7.2,4.8-11,7.1C64.8,340,64.1,340.9,64.4,342.5z M264.8,132.3c-4.7,2.4-8.8,5-11,9.7
		c3-1.4,5.4-3.8,8.5-4.8C264.8,136.4,265.3,134.9,264.8,132.3z M267.5,150.6c-1.9,1.1-3.7,2.2-5.4,3.3c-0.6,0.4-2,0.3-1.7,1.4
		c0.3,1.2,0.9,2.6,2.5,2.7c0.8,0.1,1.7,0,2.5,0.1c1.1,0.1,1.4-0.4,1.5-1.5C267,154.7,267.3,152.8,267.5,150.6z M34.1,134.3
		c0-1-0.5-1.3-1-1.5c-3.4-2.4-6.8-4.8-10.3-7.2c-0.5-0.4-1.6-1.4-1.8-0.4c-0.2,0.8-0.8,2.6,0.9,3.1c2.8,0.8,5.1,2.5,7.5,4.1
		C30.8,133.3,32.2,134.3,34.1,134.3z M267.4,243.1c2.7,2.7,16,3.7,18.1,1.5C279.5,244.1,273.7,243.6,267.4,243.1z M81.1,337.7
		c-3.9,3.9-7.3,7.9-10.6,12c-0.3,0.4-0.5,0.9-0.1,1.3c0.6,0.5,1-0.1,1.4-0.4c3.9-2.9,5.4-7.8,9-10.9
		C81.2,339.4,81.5,338.8,81.1,337.7z M92.9,342.5c-0.9,0-1.1,0.5-1.3,0.9c-2,4.2-3.1,8.6-4.2,13c-0.2,0.9-0.3,2,1.1,2
		c1.5,0.1,1.2-1.2,1.2-2c-0.1-3.6,0.7-6.9,1.9-10.2C92.1,345.1,92.5,343.8,92.9,342.5z M157.6,388.8c1.1,4.7,1.8,9.4,5.2,13.1
		C162.2,397,160.5,392.6,157.6,388.8z M32.4,158c2.3,0.1,4.4-0.9,4.3-1.8c-0.1-2-2-3.5-4.5-3.6c-0.6,0-1.4,0-0.9,0.7
		C32.3,154.8,30.7,157.1,32.4,158z M41.8,254.1c-5.8,2.1-7.8,4-7.5,6.9C37,258.9,40.9,258.3,41.8,254.1z M266.1,263.3
		c-1-3.8-4.2-6.7-7.7-7C260.6,259,262.5,261.9,266.1,263.3z M130.7,393.6c1.3-0.3,2-0.8,2.4-1.6c0.7-1.1,1.1-2.5,2.1-3.3
		c1.1-1,0.8-2.1,1-3.2c0.1-0.5-0.2-0.9-0.6-1.1c-0.6-0.3-0.8,0.4-0.9,0.7C133.4,387.8,132.1,390.6,130.7,393.6z M68.4,323
		c1.5-0.3,3.3-1.2,4.7-2.5c0.9-0.8-0.2-1-0.7-1.1c-2.1-0.5-3.9,0.4-5.6,1.6c-0.4,0.3-0.5,0.8-0.3,1.3
		C66.8,322.9,67.3,323.1,68.4,323z M151.6,395.2c-0.5,3.2,0.1,5.7,0.7,8.2c0.3,1,1,1.6,1.8,1.3c0.8-0.3,0.2-1.2,0.1-1.8
		C153.7,400.4,153.1,397.9,151.6,395.2z M40.9,139.9c-0.8-2.4-1.6-4.1-3.4-5.1c-0.8-0.4-2-1.2-2.5-0.3c-0.4,0.9-0.3,2.3,1.1,2.9
		C37.6,138.2,39,139,40.9,139.9z M276.8,258.9c-1.1-4.2-2.2-4.9-5.2-3.9C272.1,257.8,274.4,258.2,276.8,258.9z M269.6,225.8
		c-1.8,0.7-3.5,1.2-5.1,1.8c-0.9,0.3-1.3,0.8-0.3,1.4c1.7,1,3.3,0.3,4.8-0.4C270.3,228,269.5,226.9,269.6,225.8z M275.5,125.6
		c-2.3,2-4.3,3.6-6.6,5.5C274.1,130.3,275.3,129.4,275.5,125.6z M229,318.5c-1.1,0.2-2.8,0.7-2.7,1.5c0.2,1.5,1.9,1.8,3.3,2
		c0.7,0.1,1.6-0.1,1.4-1C230.8,319.8,230.4,318.6,229,318.5z M259.1,267.8c-1-2.6-2.6-4.8-5.4-5.6
		C254.6,264.9,257.1,266.1,259.1,267.8z M152.9,42.6c1.6-1.5,1.9-3,2.3-4.4c0.2-0.6,0.3-1.5-0.7-1.7c-0.9-0.1-1.5,0.5-1.6,1.3
		C152.8,39.3,152.9,40.7,152.9,42.6z M18.7,260.4c1.9-0.9,3.7-1.5,5.2-3C19.4,256.8,19.1,257,18.7,260.4z M44.1,119.3
		c0.3,2.7,0.8,3.3,3.6,5.3C47.4,122,46,119.9,44.1,119.3z M214.1,344.9c0.6,1.7,0.7,3.4,2.6,4.2
		C216.7,347.1,217.2,345.1,214.1,344.9z M145.8,38.3c-0.9,1.5-0.7,2.9,0,4.2c0.2,0.4,0.7,0.1,1-0.2c1.2-1.4,0.1-2.6-0.5-3.8
		C146.2,38.5,146.1,38.5,145.8,38.3z M30.7,117.5c-0.1-3.3-0.3-3.5-3.2-3.5C28.6,115.2,29.5,116.3,30.7,117.5z M93.8,357.2
		c-1.1,0.3-2.1,0.5-1.9,1.8c0.1,0.3,0.2,0.7,0.5,0.6C93.6,359.4,93.6,358.3,93.8,357.2z M30.3,263.4c-0.1-0.1-0.1-0.1-0.2-0.2
		c-0.1,0.1-0.1,0.2-0.1,0.3c0,0,0.1,0.1,0.1,0.2C30.2,263.6,30.3,263.5,30.3,263.4z"/>
	<path class="st0" d="M192.7,398c-4.5-0.2-8.3-1.1-12.3-0.9c-2.2,0.1-3-1.8-3.3-3.6c-0.7-3.8-1.4-7.6-1.9-11.5
		c-0.5-4,0.6-7.7,3.1-10.9c1.2-1.5,2.8-2.9,5-2.2c2.3,0.7,3,2.8,3.5,4.9c0.3,1.5-1,2.3-2,3.2c-0.7,0.6-1.6,1-2.2,1.7
		c-0.7,0.8-1.9,1.6-1.3,2.8c0.6,1.2,1.4,2.3,3.1,2.5c2.4,0.2,3.6,2.1,4.2,4.4c0.9,3.2,3.3,3.9,5.8,1.6c0.7-0.6,1.1-1.5,1.8-2.1
		c0.8-0.7,1-2.4,2.8-1.7c1.8,0.7,3.4,1.3,3.4,3.8c0,4.4-2.2,7.3-6.5,8C194.7,397.9,193.4,398,192.7,398z"/>
	<path class="st0" d="M106.9,398.8c-2.5-0.1-4.8,0.3-7.1-0.5c-3.1-1.1-5.4-4.1-5.4-7.2c0-2.9,2.8-5.1,5.6-4.4c1,0.2,1.2,1,1.5,1.9
		c0.9,2.6,3.1,3.9,5.7,3.6c1-0.1,1-0.7,1.2-1.4c0.3-1.3,0.7-2.6,1.1-3.8c0.5-1.3,1.3-2.1,2.9-1.6c1.3,0.4,2.1-0.2,2.5-1.4
		c0.5-1.3,1.5-2.7,0-4.1c-0.7-0.6-1.5-1.1-2.3-1.6c-1.2-0.7-1.9-1.6-2-3c-0.1-1.9-0.1-3.9,1.8-4.9c2-1.1,3.8-0.3,5.4,0.9
		c1.8,1.4,2.9,3.2,3.4,5.4c0.8,3.3,1,6.8,0.1,9.9c-0.7,2.5-0.8,4.7-0.5,7.1c0.2,2-1,2.9-2.7,3.5
		C114.5,398.6,110.6,398.6,106.9,398.8z"/>
	<path class="st0" d="M60.9,304.4c0,2.7-0.2,5.3-2,7.7c-1.4,1.8-1.5,4.2-1.9,6.4c-0.2,0.8-0.3,1.6-1.4,1.9
		c-6.5,1.6-12.7,1.2-18.1-3.3c-2.1-1.8-3.8-3.9-4-6.9c-0.1-2.1,0.9-3.2,2.9-3.5c2.3-0.3,3.8,0.6,4.1,2.7c0.2,1.8,0.8,3.2,2.7,3.6
		c1.7,0.4,3.2,0.8,3.3-2c0.1-2.4,1.3-3.2,3.9-3.1c0.6,0,1.3,0.1,1.9,0c1.4-0.2,2.6-1,3.1-2.2c0.4-1-0.7-1.8-1.4-2.5
		c-1.7-1.5-2.5-3.3-2.3-5.6c0.2-2.2,1.6-3.3,3.8-3c3,0.4,5.2,3,5.4,6.2C61,302,60.9,303.2,60.9,304.4z"/>
	<path class="st0" d="M259.9,278.1c2.5-0.2,3.9,1,4.6,3.3c0.7,2.5,1.8,4.8,2.9,7.1c2.2,4.6,1.9,9.4-0.9,13.8c-1,1.7-2.5,3.1-4.8,2.2
		c-1.5-0.6-3-4.5-2.5-6.2c0.2-0.6,0.6-0.7,1-0.8c2.2-0.7,2.3-2.6,2.3-4.4c0-1.7-1.7-2-2.7-1.8c-3.5,0.6-5-1.3-6.2-4
		c-0.4-0.9-1-2.1-2.3-2.1c-1.3,0-1.5,1.4-2.1,2.3c-0.4,0.7-0.6,1.5-1,2.1c-0.5,0.9-0.3,2.4-1.6,2.6c-1.7,0.3-3.4-0.2-5-0.9
		c-0.6-0.3-0.4-0.9-0.5-1.4c-0.8-4.3,0.8-7.1,4.8-8.8c2.5-1.1,4.9-1.9,7.6-2c1.6-0.1,3.1,0,4.6-0.5
		C258.7,278.5,259.3,278.3,259.9,278.1z"/>
	<path class="st0" d="M26.6,295.6c0.1-0.6,0.1-1.4,0.3-2.1c1.4-4.4,2.9-8.7,4.4-13c0.5-1.6,1.7-2.4,3.4-2.2
		c4.2,0.5,8.3,0.9,12.5,1.7c4.3,0.8,7.2,4.3,7.5,8.7c0.1,1.8-0.4,3.3-2.4,3.7c-2.5,0.5-4.6-0.5-5.2-2.4c-0.2-0.8-0.3-1.7-0.5-2.5
		c-0.4-1.2-1.3-1.6-2.5-1.7c-1.2,0-2.2,0.1-2.6,1.5c-0.8,2.6-2.3,4.3-5.3,4.2c-0.6,0-1.2,0.4-1.7,0.7c-1.7,0.8-2.2,1.8-0.7,3.4
		c1.4,1.5,2.6,3.1,2.4,5.4c-0.1,1.4-0.5,2.7-1.8,3.3c-1.4,0.7-2.7,0.3-3.9-0.6C27.7,301.6,26.7,298.9,26.6,295.6z"/>
	<path class="st1" d="M264.3,196.7c-0.1-3.3,1.9-5.5,4.5-7.2c0.6-0.4,1-0.3,1.4,0.2c0.9,1.1,1.9,2.1,2.8,3.1
		c0.6,0.6,0.5,1.2,0.1,1.9c-0.5,1-1,1.9-1.4,2.9c-0.4,1-0.8,2.2,0.1,3.1c1,1,2.5,1.1,3.5,0.4c2.2-1.5,3.5-0.1,4.8,1.1
		c0.6,0.6,1.2,1.1,2,1.5c1.8,0.7,2.9,0.2,3.3-1.7c0.3-1.4,0.5-2.8,1.2-4c0.7-1.3,1.7-2.4,3.3-2.2c1.7,0.1,2.6,1.3,3.1,2.8
		c1.1,3.3-0.2,6-2.3,8.3c-2.1,2.2-4.6,3.7-7.5,4.6c-2,0.6-4,1.3-5.5,2.9c-1,1-2.2,1.1-3,0c-3-4.3-7-7.9-9.3-12.8
		C264.6,199.9,264.2,198.5,264.3,196.7z"/>
	<path class="st0" d="M295.9,186.3c0.1,3.3-2.1,5.2-4.5,6.9c-0.2,0.2-0.6,0.2-0.8,0.1c-2.7-0.6-4.2-3.5-3.1-6.2
		c0.3-0.6,0.6-1.3,0.9-1.9c0.3-0.9,1.2-1.8,0.3-2.8c-0.9-0.9-2-1.1-3.3-0.8c-0.6,0.2-1.2,0.3-1.8,0.6c-1.6,0.6-2.7,0.1-3.3-1.5
		c-0.6-1.4-4.1-2.3-5.3-1.5c-0.4,0.2-0.4,0.6-0.4,1c-0.1,0.7-0.1,1.4-0.2,2.1c-0.4,4.5-1.5,5.2-5.9,4c-1.5-0.4-1.7-1.1-1.7-2.5
		c0.3-5.9,2.9-10.1,8.9-11.6c2.6-0.7,4.9-2.1,7.2-3.3c1.6-0.9,3.3-0.9,4.3,0.8c2.6,4.1,5.5,8.1,7.7,12.5
		C295.5,183.5,295.9,184.9,295.9,186.3z"/>
	<path class="st0" d="M3.4,200.3c-0.1-2.9,1.4-4.6,3.8-4.5c1.9,0.1,3.1,1,3.1,3c0,0.4,0,0.8,0,1.2c0,1.3-0.3,2.9,1.4,3.3
		c1.8,0.4,3.9,0.7,5.1-1.1c1.1-1.6,2.4-1.5,3.8-0.9c0.9,0.4,1.7,0.6,2.7,0.2c2.4-1,2.6-1.4,1.6-3.8c-0.3-0.6-0.6-1.3-0.9-1.9
		c-1.3-3-1-3.8,1.7-5.6c1.3-0.9,2.4-0.9,3.6,0.1c3.2,2.5,4.3,6.1,2.6,9.8c-2.5,5.4-6.6,9.8-10.5,14.2c-0.8,1-1.7,0.8-2.5-0.2
		c-1.6-1.8-3.6-2.8-6-3.3C7.6,209.9,3.5,205.3,3.4,200.3z"/>
	<path class="st0" d="M1.7,186.2c-0.3-4.1,1-7.4,4-10.3c1.5-1.5,2.7-3.2,4.1-4.8c1-1.2,2.2-2,3.9-1.5c4.3,1.4,8.8,2.6,12.5,5.5
		c2.4,1.8,4.1,4.1,3.8,7.3c-0.1,2.3-1.7,4.4-3.4,4.5c-1.9,0.2-3.4-1.2-4.2-3.7c-1.6-5.3-1.6-5.3-6.4-2.7c-1.8,1-3.6,0.8-5.4,0.8
		c-2.3,0.1-2.9,0.8-2.5,3.1c0.2,1.2,0.7,2.4,0.9,3.6c0.5,2.2-0.8,4-2.9,4.5c-2.3,0.5-3.9-0.7-4.3-3.1C1.7,188.4,1.7,187.3,1.7,186.2
		z"/>
	<path class="st4" d="M259.9,278.1c-0.6,0.2-1.2,0.4-1.8,0.6c0.3-0.5,0-0.7-0.4-0.9c1.2-0.9,2-2.2,3.4-2.9
		C260.7,275.9,259.4,276.7,259.9,278.1z"/>
	<path class="st4" d="M261.6,272.1c-0.2-0.2-0.3-0.5,0-0.7c0.1-0.1,0.4,0.1,0.5,0.2C261.9,271.7,261.8,271.9,261.6,272.1z"/>
	<path class="st0" d="M57,187.9c1.4,12.5,2.6,22.5,3.8,32.6c1.6,14.7,4.8,29,10.5,42.7c3.9,9.2,9.3,17.6,14.4,26.1
		c4.2,6.9,9.3,14.5,14.6,20.6c0.9,1,0.3,0.8-0.9,1.5c-0.9,0.5-1.7,1.4-2.1,2.4c-0.7,1.5-1.2,1.3-2.1,0.1c-6.5-8.4-12.2-17.2-18.1-26
		c-11.8-17.6-18.3-37-21.5-57.9c-2-12.9-3.8-25.9-4-39c0-2.9-0.5-5.9-0.9-8.8c-0.1-1.3,0.2-2.2,1.3-3c6.2-4.9,12.3-9.8,18.4-14.7
		c0.8-0.7,1.2-0.5,1.9,0c2.2,1.8,4.4,3.7,6.8,5.4c12.6,8.7,29.3,8.9,40.9-5.2c6.7-8.2,10.8-17.4,11.3-28.1c0.1-1.4,0.4-1.9,1.9-1.9
		c10.2,0.1,20.4,0.1,30.6,0c1.6,0,1.9,0.6,1.9,2c0.5,8.8,3.1,16.8,8.4,23.9c3.6,4.7,7.7,9.2,12.8,12.2c7.5,4.4,15.5,3.8,23.4,0.8
		c4.7-1.8,8.3-5.4,12.3-8.4c1.9-1.4,3.3-1.4,5.1-0.2c6.2,4.1,11.6,9.2,17.7,13.4c0.8,0.6,0.9,1.3,0.8,2.2
		c-1.6,15.3-1.6,30.8-3.7,46.1c-3.4,24.2-11.8,46.5-25.3,66.9c-5,7.6-10.4,15-16.1,22.1c-0.8,1-1.5,1.6-2.9,1c-0.9-0.4-2-0.4-3,0.1
		c-1,0.5-2,0.2-2.5-0.5c-0.6-0.8,0.5-1.3,0.9-1.9c9.8-12.3,18.9-25.1,26.5-38.9c8.5-15.4,13-32.1,15.8-49.3
		c2.2-13.7,3.3-27.5,3.5-41.4c0-1.7-0.4-2.6-1.8-3.6c-3.3-2.2-6.5-4.6-9.6-7.1c-1.7-1.3-2.8-1.4-4.6-0.2c-5.7,4-11.7,7.3-18.7,8.6
		c-9.4,1.8-17.6-0.8-25-6.3c-10.1-7.3-15.9-17.5-19.4-29.2c-0.1-0.4-0.2-0.8-0.3-1.1c-1.3-5-1.6-5.2-6.8-4.6c-0.9,0.1-1,0.3-1.1,1.3
		c-0.1,5.7,1.4,10.9,4.6,15.6c0.9,1.4,1,2.5,0.2,4.1c-1.9,4.1-5.3,7.3-6.7,11.7c-0.3,0.9-1.1,0.2-1.5-0.1c-1.9-1.2-3.3-2.9-4.5-4.7
		c-1.6-2.4-3-4.9-4.5-7.4c-0.7-1-0.6-1.9,0.1-3c2.9-4.8,5.1-9.8,5.1-15.5c0-1.5-0.3-2.1-1.9-2c-1.8,0.1-3.9-0.5-5.3,0.3
		c-1.4,0.8-0.8,3.1-1.2,4.7c-3.6,13.5-10.9,24.3-22.4,32.3c-9.4,6.6-19.4,6.1-29.6,2c-3.9-1.6-7.4-4-11-6.1c-1.6-0.9-3-1-4.5,0.1
		c-1.9,1.4-3.9,2.8-5.9,4.1C59.2,181.7,56.2,185,57,187.9z"/>
	<path class="st1" d="M95.2,313.9c1.8-0.2,3.4-6.2,5.1-4c3.6,3.9,16.9,18.8,20.8,22.9c0.2,0.2,0.4,0.4,0.6,0.6
		c5.9,5.4,11.8,10.9,17.8,16.2c2.5,2.3,5.2,4.4,8.1,6.3c1.1,0.7,1.8,0.7,2.9-0.2c9.4-7.9,33.8-30.9,42.1-40c0.9-1,7.3,0.1,7.7,0.8
		c0.4,0.7-13.7,16.1-14,16.5c-10.1,10.8-20.8,21-32.8,29.7c-0.4,0.3-0.9,0.6-1.4,0.9c-2.1,1.4-3.8,1.5-6-0.3
		c-11.4-9.3-23.2-18.3-33.4-29C111.9,333.6,95.5,315,95.2,313.9z"/>
	<text transform="matrix(1 0 0 1 60.9217 254.1301)" class="st3 st5 st6">Ш</text>
	<text transform="matrix(1 0 0 1 161.3474 254.13)" class="st3 st5 st6">Д</text>
	<text transform="matrix(1 0 0 1 120.6629 326.0224)" class="st3 st5 st6">Т</text>
</g>
</svg>
