<?xml version="1.0" encoding="utf-8"?>
<!-- Generator: Adobe Illustrator 27.0.0, SVG Export Plug-In . SVG Version: 6.00 Build 0)  -->
<svg version="1.1" id="Слой_1" xmlns="http://www.w3.org/2000/svg" xmlns:xlink="http://www.w3.org/1999/xlink" x="0px" y="0px"
	 viewBox="0 0 512 512" style="enable-background:new 0 0 512 512;" xml:space="preserve">
<g>
	<path d="M378.4,504c-35.8-0.7-69.3-10.2-101.4-24.7C218.9,453,169.4,414.8,125.5,369c-37.7-39.4-69.5-83-91.9-133
		C18.3,202,7.9,166.7,9,129c1.1-34.4,14-63.6,40.1-86.6c7-6.2,14-12.3,21-18.5c20.3-17.8,54.1-17.6,73.9,0.7c4,3.7,7,8.4,10.4,12.7
		c11.9,15.2,23.7,30.4,35.6,45.6c16.9,21.5,15.3,51.8-4,72.3c-9.3,9.8-18.8,19.4-28.3,29c-2.3,2.3-2.7,4.1-1.3,7.1
		c34.3,75.5,88.3,131.3,164.5,165.1c3.6,1.6,5.6,1,8.2-1.7c8.7-8.8,17.6-17.4,26.5-26c23.5-22.6,54-23,79-2c15,12.6,31,24,46.5,36
		c23.1,17.7,29.1,50.4,12.1,74c-9.6,13.3-20.8,25.9-32.9,37.1C437.4,494.9,409.4,504,378.4,504z M380.2,483.4
		c23.7,0,47.5-7.2,66.8-25.3c10.5-9.8,20-20.9,28.7-32.4c11.3-15,7.5-35.7-7.4-47.1c-16.1-12.3-32.4-24.3-48.1-37.1
		c-15.8-12.9-34.9-12.7-49.6,1.4c-10.9,10.5-21.9,20.9-32.4,31.7c-5.6,5.8-11,6.7-18.5,3.6c-87.7-36.6-148.5-99.8-185.7-186.6
		c-2.7-6.4-1.7-11.2,3.1-16c11.6-11.6,23.1-23.2,34.3-35.2c11.9-12.7,12.4-31.7,1.9-45.1c-13.1-16.8-26.8-33.4-39.2-50.7
		c-11.7-16.4-35.8-18.3-50.6-5.1c-6.6,5.9-13.3,11.7-20,17.5c-25.7,22.1-35.6,50.6-34.1,83.8c1.1,25,7.4,48.8,16.5,72
		c18.2,46.1,45.4,86.7,77.9,123.7c43.3,49.4,93.1,90.8,152.4,119.9C308.4,471.8,341.8,482.5,380.2,483.4z"/>
	<path d="M292.8,10c84.2,1.5,163.2,56.5,194.4,135.3c10.1,25.5,15.4,52,15.7,79.4c0,4.8-1.6,8.5-6,10.6c-3.8,1.8-8,1.6-10.7-1.6
		c-2.1-2.5-3.6-6.2-3.7-9.4c-0.7-18.6-2.7-36.9-8.6-54.6c-24.5-73.5-74.6-119-150.4-135.6c-12-2.6-24.6-2.6-36.9-3.8
		c-5.9-0.6-10.1-4.7-10.1-10.2c0-5.7,4.4-10.1,10.6-10.3C288.9,10,290.8,10,292.8,10z"/>
	<path d="M294.3,92.5c57,3.1,104.4,42.3,119.8,93.6c3.6,12,4.7,24.8,6.3,37.4c0.9,7.6-3.4,12.6-9.7,12.9
		c-6.4,0.3-10.6-4.6-10.9-12.5c-2-45.2-23.3-78.2-63.2-99.2c-14.4-7.6-30-11.2-46.3-11.6c-9.1-0.2-13.9-3.9-13.9-10.6
		c0.1-6.8,5.3-10.5,14.5-10.2C292.1,92.4,293.2,92.5,294.3,92.5z"/>
</g>
</svg>
