<?xml version="1.0" encoding="utf-8"?>
<!-- Generator: Adobe Illustrator 27.0.0, SVG Export Plug-In . SVG Version: 6.00 Build 0)  -->
<svg version="1.1" id="Слой_1" xmlns="http://www.w3.org/2000/svg" xmlns:xlink="http://www.w3.org/1999/xlink" x="0px" y="0px"
	 viewBox="0 0 417 43.2" style="enable-background:new 0 0 417 43.2;" xml:space="preserve">
<style type="text/css">
	.st0{fill:#F8F8F8;}
	.st1{fill:#F7F7F7;}
	.st2{fill:#F4F4F4;}
	.st3{fill:#FAFAFA;}
	.st4{fill:#EEEEEE;}
</style>
<g>
	<path class="st0" d="M239.3,23.5c1.4-0.6,2.9-1.1,4.5-1c3.2,0.2,5.5,2.7,5.6,6.3c0,1.5-0.2,2.9-0.4,4.8c2-0.8,3.2-2.2,4.1-3.9
		c1.7-3.2,2.3-6.8,3.5-10.1c1-3,3.7-4,6.6-2.6c1.2,0.6,1.2,1.4,0.8,2.5c-1.4,4.6-2.8,9.2-4.2,13.8c-0.2,0.8-0.8,1.8,0.1,2.3
		c0.9,0.5,1.5-0.5,2.1-1.1c3-2.9,4.5-6.7,5.5-10.6c0.4-1.7,0.9-3.5,1.4-5.2c0.7-2.2,2.5-2.8,5.3-2c2.2,0.6,1.8,2.1,1.4,3.7
		c-1.1,4.1-2.1,8.1-3.1,12.2c-0.2,1-0.9,2.4,0.3,2.9c1.1,0.5,2-0.6,2.8-1.3c2-1.8,3.2-4.2,4-6.7c0.9-2.9,1.7-5.8,2.6-8.7
		c0.7-2.3,2.3-2.9,5.2-2.1c2.2,0.6,2.2,2,1.6,3.8c-1.3,4.2-2.6,8.5-3.2,12.9c-0.1,0.7-0.5,1.7,0.3,2.1c0.8,0.4,1.4-0.5,1.9-1
		c1.7-1.7,3-3.8,4-6c0.6-1.2,1.3-1.8,2.5-1.1c1.2,0.7,1.2,1.5,0.6,2.7c-1.7,3.2-3.6,6.2-6.4,8.6c-1.6,1.3-3.4,2.2-5.6,2
		c-2.4-0.2-3.4-1.9-3.9-4.4c-2.3,2.3-4.5,4.2-7.6,4.6c-3.5,0.5-5.5-0.6-6.9-3.7c-1,0.1-1.4,1-2,1.5c-1.8,1.5-3.8,2.4-6.2,2.3
		c-2.2-0.1-3.9-1-4.5-3.4c-0.1-0.4,0.1-1.6-0.9-1.1c-2.3,1.3-5,0.9-7.3,2.7c-2.5,2-5.9,2.3-9.2,1.5c-2.6-0.6-4-2.4-4.9-4.9
		c-1.4,1.3-2.4,2.7-3.8,3.6c-1.5,1-3.1,1.5-4.8,1.5c-3,0-4.6-1.5-4.8-4.5c0-0.5,0-0.9,0-1.4c-0.1-1.2,1-2.8,0.1-3.5
		c-0.9-0.6-2.5-0.2-3.8-0.3c-1.4-0.2-1.9,0.5-2.2,1.8c-0.3,1.6-0.8,3.2-1.1,4.8c-0.3,1.8-1.2,2.9-3.2,2.9c-2,0-4.2,0.4-4.8-2.5
		c-2.8,2-5.9,3.1-9.3,2.5c-3.5-0.6-5.5-2.9-5.5-6.4c0-4.1,1.8-7.5,3.8-10.9c1.5-2.4,1.5-2.4-1.3-3.9c-0.4,1.4-0.7,2.7-1.1,4
		c-1.5,5.2-3.9,10-7.6,14c-1,1.1-2.1,2.1-3.5,2.7c-4.2,1.9-7.2,0.5-8.6-3.8c-3.1,0.9-6.3,1.6-9.1,3.5c-2.2,1.4-4.9,1.5-7.5,0.9
		c-2.6-0.5-4.3-2-5-4.6c-1-0.1-1.2,0.8-1.6,1.2c-1.5,1.4-3,2.7-5,3.3c-4,1.2-6.9-0.6-7.6-4.7c-0.5-3,0.3-5.9,0.2-9
		c-1.2,0.6-1.5,1.8-2,2.8c-1.4,2.7-2.6,5.5-3.6,8.4c-0.9,2.7-3.6,3.8-6,2.4c-0.8-0.5-1.4-0.6-2.3-0.3c-3.7,1.2-5.3,0.4-7.1-3.4
		c-0.8,0.7-1.6,1.5-2.5,2.1c-3.6,2.8-7.7,2.6-10.6-0.6c-0.6-0.7-0.9-0.5-1.4,0c-1.1,1.1-2.5,1.9-4,2.3c-3.9,1.1-6.4,0-8.3-3.9
		c-1.9,1.7-3.8,3.4-6.5,3.9c-2.9,0.5-4.2-0.3-5.9-4c-1.9,2.3-4,4.2-7.1,4.3c-3.2,0.1-5.5-1.3-7-4.5c-2,2.1-4.1,4-7.1,4.3
		c-3.2,0.3-5.2-1.2-6.3-4.3c-2.5,2.4-4.9,4.4-8.3,4.5c-3.4,0.1-6.1-1.1-7.6-4.5c-1.8,1.9-3.6,3.4-6,4.1c-5.8,1.6-10.2-1.6-10.2-7.7
		c0-3.6,1-7.1,2-10.5c1.1-3.6,2.2-7.3,3.4-11.6c-2.8,1.9-5.5,2.5-7.8,3.8c-2.4,1.4-2.4,3.4-0.2,5c0.9,0.7,1,1.5,0.8,2.5
		c-0.3,1.2-1,1.8-2.3,1.9c-2.8,0.1-5.8-1.5-6.8-4c-1.1-2.6-0.4-5.6,1.8-7.6c1.7-1.5,3.8-2.4,6-3.1c4.3-1.3,8.3-2.9,11.5-6.4
		c1.3-1.4,4.6-1.5,6.1-0.3c1,0.8,0.8,1.7,0.4,2.7c-2.5,8-5,16-7.1,24.2c-0.3,1-0.5,2.1-0.5,3.2c0,2.7,1.7,3.6,4,2.1
		c2.7-1.7,4.2-4.3,5.1-7.3c2.2-7.2,4.3-14.5,6.4-21.7c0.8-2.9,2.4-3.8,5.2-3c2.3,0.7,2.9,1.7,2.2,4c-2.2,7.5-4.4,14.9-6.6,22.4
		c-0.3,1.2-0.5,2.4-0.5,3.7c-0.1,2.5,1.4,3.4,3.7,2.2c1.8-0.9,2.9-2.6,3.9-4.2c2.6-4,3.5-8.6,4.8-13.1c1.2-4.1,2.3-8.2,3.5-12.4
		c0.7-2.5,2.5-3.4,5-2.6c2.4,0.7,2.8,1.8,2,4.5c-2.4,8.1-5.3,15.9-7,24.2c-0.3,1.3-1.1,3.1,0.4,3.8c1.4,0.7,2.5-0.9,3.4-1.9
		c1.7-1.7,2.9-3.8,3.8-6.1C63.1,19,71.6,14.6,80,17c1,0.3,2,0.8,3,1.3c1,0.6,2.2,1.1,2.1,2.5c-0.2,1.5-1.3,2.4-2.6,3
		c-0.4,0.2-1-0.2-1.2,0.7c-0.6,3-1.4,5.9-2,8.9c-0.2,0.7-0.4,1.7,0.4,2.1c0.7,0.3,1.3-0.3,1.8-0.7c2.3-2,4.2-4.4,5.1-7.4
		c0.8-2.8,1.6-5.7,2.4-8.5c0.7-2.3,5.4-3.2,7.1-1.5c0.7,0.8,0.2,1.6,0,2.4c-1.1,4.4-2.3,8.7-3.3,13.1c-0.2,0.9-0.7,2,0.3,2.6
		c1.1,0.6,1.9-0.4,2.6-1.1c2.3-2.3,3.4-5.2,4.2-8.2c0.7-2.5,1.4-5,2-7.4c0.3-1.3,1.2-2,2.4-2.1c1.6-0.1,3.3-0.4,4.7,0.8
		c0.7,0.7,0.2,1.6,0,2.4c-1.4,4.3-2.7,8.6-3.4,13.1c-0.1,0.9-0.6,2.1,0.4,2.5c1,0.5,1.9-0.5,2.6-1.2c1.7-1.8,3-4,3.7-6.4
		c0.9-3.1,1.8-6.1,2.6-9.2c0.3-1.4,1.1-2,2.4-2.1c1.6-0.1,3.3-0.3,4.6,1c0.7,0.7,0.2,1.6-0.1,2.4c-1.3,4.2-2.5,8.4-3.3,12.7
		c-0.2,1-0.6,2.3,0.3,2.8c1,0.5,1.7-0.7,2.4-1.4c1.4-1.2,2.1-2.9,2.9-4.5c2-3.9,4.5-7.4,7.2-10.9c1.9-2.5,5.7-2.4,7.7-1.7
		c1.3,0.5,1.3,1.5,1.2,2.7c-0.5,4-1,8-1.3,12.1c-0.1,1.4-0.6,3.4,1,4c1.6,0.6,2.8-1,3.8-2.1c1.8-2.1,3.2-4.4,3.8-7.1
		c0.7-2.7,1.4-5.4,2.3-8.1c0.7-2.1,5.3-2.9,6.7-1.2c0.6,0.7,0.2,1.5,0,2.2c-0.4,1.3-0.8,2.6-1.3,4.3c3.4-1.3,6.5-2.2,9.1,0.6
		c2.5,2.6,1.8,5.9,1.2,9.4c3.3-1.4,4.5-4.1,5.5-6.9c0.8-2.4,1.5-4.9,2.3-7.4c0.9-2.8,4.6-4,6.9-2.3c1,0.7,0.7,1.6,0.4,2.5
		c-1.4,4.5-2.8,9.1-4.1,13.6c-0.2,0.8-0.8,1.8,0,2.4c0.8,0.5,1.6-0.4,2.1-1c4.7-5.1,6.5-11.4,7.7-18c0.1-0.8-0.4-1.6-0.6-2.5
		c-0.3-1.8,1.1-3.9,2.7-4c2-0.1,2.9,1.1,3.2,3c0.5,2.7,2.2,4.3,5,4.4c3.1,0.2,4.3,2.2,2.7,4.9c-0.5,0.8-1,1.6-1.6,2.3
		c-1.2,1.7-2.3,3.5-2.9,5.6c-0.4,1.8-1.6,4,0.3,5.2c1.9,1.2,3.9-0.3,5.4-1.6c2.2-1.9,3.7-4.2,4.4-7c0.7-2.6,1.4-5.3,2-7.9
		c0.3-1.3,0.9-2.2,2.2-2.3c1.7-0.1,3.5-0.5,4.9,0.9c0.6,0.6,0.4,1.3,0.2,2c-0.5,1.8-0.9,3.6-1.4,5.4c-0.3,1-0.1,1.5,1,1.4
		c0.1,0,0.2,0,0.2,0c4.3,0.3,4.3,0.3,5.3-4c0.3-1.1,0.6-2.3,0.8-3.4c0.3-1.6,1.2-2.2,2.7-2.4c4.4-0.4,5.3,0.6,4.1,4.9
		c-1.1,3.9-2.2,7.8-3.2,11.7c-0.2,0.8-0.8,2,0.2,2.5c0.9,0.5,1.7-0.5,2.3-1.2c2.1-2.3,3.8-4.9,4.5-8c0.6-2.7,1.5-5.4,2.3-8.1
		c0.3-1.2,1.1-1.9,2.3-1.9c1.5,0,3.2-0.3,4.4,0.9c0.5,0.5,0.3,1.2,0.1,1.8c-0.4,1.3-0.7,2.5-1.1,3.8c-0.1,0.2-0.1,0.5-0.2,0.7
		C238.9,23.6,239.1,23.6,239.3,23.5z M78.7,22.4c-2.7-1.1-5.3-1.2-7.6,0.6c-3.4,2.6-5.1,6.2-5.4,10.4c-0.1,0.8-0.1,1.8,0.8,2.3
		c1,0.5,1.8-0.3,2.4-1c2.5-2.7,4.3-5.7,5.3-9.2C74.9,22.9,76.1,21.9,78.7,22.4z M238.3,35.9c1.6,0,2.3-0.6,2.5-2.3
		c0.1-1.1,0.6-1.9,1.6-2.4c1.1-0.7,1-1.7,0.6-2.7c-0.4-1.1-1.4-1-2.4-0.9c-2.6,0.5-4.9,4.1-4.2,6.7
		C236.6,35.3,237.2,35.9,238.3,35.9z M157.6,27.5c-3,0-5.8,4.6-4.6,7.3c0.5,1,1.2,1.2,2.1,1c0.9-0.2,2.1-0.2,2.1-1.4
		c0-1.6,0.5-2.6,1.8-3.5c0.8-0.5,0.7-1.5,0.4-2.3C159.2,27.7,158.4,27.6,157.6,27.5z"/>
	<path class="st1" d="M398.3,32.2c-1.7,1.9-2.8,4-4.3,5.8c-1.2,1.5-2.6,2.5-4.6,2c-2-0.5-2.5-2.2-2.9-3.9c-0.4-1.8-0.5-3.7-0.7-5.6
		c-1.5,2.3-2.2,4.9-2.9,7.6c-0.5,2-1.5,2.9-3.5,3c-2.9,0.1-3.6-0.6-3.2-3.7c-2.5,0.4-5-0.1-7.4,1.7c-2.8,2.2-6.3,2.6-9.8,1.7
		c-2.8-0.7-5-2.4-5.7-5.3c-1.8-7.7,3.8-18.9,14.3-19.1c5.5-0.1,8.8,3,8.8,8.6c0,2.9-0.7,5.7-2.2,8.8c2.4-0.4,3.8-1.6,4.7-3.3
		c2.1-3.7,4.1-7.5,6-11.3c0.7-1.4,1.7-2.2,3.2-2.4c3.8-0.5,4.8,0.5,4.1,4.1c-0.7,3.6-1,7.2-0.9,11.1c1.1-0.5,1.4-1.3,1.7-2
		c1.7-3.6,3.4-7.2,5.1-10.7c1.2-2.5,4.8-3.5,7.1-2c1.1,0.7,0.9,1.7,0.7,2.7c-0.7,4.4-1.8,8.7-1.7,13.2c0,0.9-0.5,2.3,0.7,2.7
		c1.1,0.4,2.1-0.5,2.8-1.3c1.7-1.6,2.8-3.7,3.8-5.8c0.5-1.1,1.1-2,2.5-1.3c1.3,0.6,1.5,1.5,0.8,2.9c-1.3,2.6-2.7,5.1-4.7,7.2
		c-0.7,0.8-1.6,1.5-2.5,2.1c-4.9,3.3-8.9,1.5-9.4-4.4C398.2,34.2,398.3,33.2,398.3,32.2z M360.6,32.7c0.1,1-0.3,2.9,1.9,3.1
		c1.8,0.2,3.1-0.6,2.9-2.8c-0.1-0.6,0.3-1.3,0.9-1.6c2.7-1.3,2.5-3.9,2.8-6.2c0.2-1.3,0.4-3-1.3-3.6c-1.6-0.6-2.9,0.3-3.9,1.5
		C361.8,25.9,360.7,28.9,360.6,32.7z"/>
	<path class="st1" d="M344.6,20.6c-0.1-1.4-0.1-2.8-0.4-4.2c-1.6-8.5-11-12.2-18-7c-2.9,2.1-4,5.3-2.6,8.4c0.8,1.7,0.1,2.7-1.1,3.6
		c-1.3,1-2.7,1.1-4-0.1c-3.4-3.1-3.7-8.7-0.5-12.7c3.7-4.7,8.9-6.4,14.6-6.6c12.3-0.5,20.2,8,19.2,20.4c-0.3,3.4-0.9,6.6-2.4,9.7
		c-4.3,9-12.7,11.7-21.4,6.9c-1.4-0.8-2.1-0.8-3.4,0.2c-3.5,2.7-7.5,2.7-11.5,1.2c-2.2-0.8-3.5-2.5-3.6-5c-0.1-2.6,0.9-4.7,3.3-6
		c2.7-1.5,5.6-1.5,8.4-0.3c2,0.9,2.4,0.1,2.9-1.6c1.3-4.6,2.5-9.3,4.6-13.7c0.7-1.4,1.5-2.7,2.6-3.9c1.5-1.6,3.3-1.5,5.1-0.6
		c1,0.5,1.4,1.2,0.7,2.3c-4.2,6.4-5,14-7.9,20.9c-0.4,0.9,0,1.2,0.7,1.7c5.5,3.6,10.9,1.9,13.2-4.2C344,26.8,344.5,23.8,344.6,20.6z
		 M318.1,32.9c-1.2,0.1-2.2,0.4-2.3,1.6c-0.1,1.2,0.9,1.5,1.9,1.5c1.4-0.1,3-0.6,3-1.9C320.9,33.2,319.1,33.1,318.1,32.9z"/>
	<path class="st2" d="M279.5,14.9c-1.8-0.2-3.6-0.5-4.8-2.3c-0.9-1.4-0.9-2.6,0.4-3.7c1.2-1,2.2-1.1,3.4,0.1
		c1.7,1.7,3.7,0.8,5.3-0.3c1.1-0.7,2-1.3,3-0.1c1.1,1.3,0.7,2.4-0.4,3.5C284.6,14,282.2,14.8,279.5,14.9z"/>
</g>
<g>
	<path class="st3" d="M-485.1,202.3c0.2,0.8,0.8,1.1,1.5,1.2c3.2,0.9,6.2,2.1,9,3.7c1.7,0.9,3.5,1.1,5.4,1.2
		c4.4,0.3,7.5,6.3,5.3,10.1c-0.6,0.9-1.3,1.2-2.4,0.8c-1.8-0.8-3.6-1.4-5.2-2.7c-4.7-3.8-10.7-5.7-15.3-10.2
		c-0.6,1.6,0.3,2.2,0.9,2.7c4.7,4,9.5,8,15.3,10.6c2.5,1.2,4.8,2.8,6.9,4.7c1.9,1.7,2.6,3.6,1.9,6.1c-0.2,0.8-0.3,1.7-0.6,2.5
		c-0.6,1.2,0.3,3.4-1.7,3.6c-2.6,0.3-5.3,0.7-7.4-2c-4.7-6.2-9.7-12.1-14.6-18.2c-0.6-0.8-1.3-1.6-2.5-1.5c-0.1-0.1-0.2-0.2-0.3-0.3
		c0,0.2,0,0.4,0,0.5c1.1,3,3,5.4,5.3,7.5c3.2,3,5.8,6.5,7.7,10.5c1.8,3.6,0.6,5.3-3.5,5c-1-0.1-2-0.3-3-0.3c-1.2,0-1.8-0.5-2.3-1.6
		c-1.1-2.3-2.1-4.6-4.1-7.1c0.2,2.3,0.3,4.1,0.5,5.9c0.1,1.3-0.3,1.6-1.6,1.5c-4.5-0.3-6.6-2-7.7-7.7c-0.7-3.6-2.4-6.7-3.7-10
		c-0.2-0.5-0.4-1-1-1.2c-0.3,1.1,0.1,2,0.6,2.9c1.4,2.8,1.6,6,2.2,9c0.2,0.8-0.2,1.1-0.9,1.2c-0.8,0.1-1.5,0.3-2.2,0.6
		c-0.6,0.2-1.5,0.4-1.1,1.4c0.3,0.7,0.7,1.6,1.9,1.1c1-0.4,2.1-0.7,3.2-0.2c1.8,0.9,3.3,2,2.8,4.4c-0.3,1.5,0,3,0.6,4.5
		c1.8,5,1.6,9.9-1.5,14.5c-0.7,1-1.6,1.9-2.6,2.6c-2.1,1.4-4.1,1-5.4-1c-1.8-2.7-1.5-4.6,0.9-6.2c0.8-0.5,1.5-1.1,2.2-1.7
		c1.6-1.4,1.1-3.5-0.9-4.1c-3.4-1-5.3-3-5.2-6.7c0-0.6,0.1-1.5-0.8-1.4c-1.3,0.3-2.3-1.8-3.6-0.3c-1.4,1.6-2.8,3.1-4.1,4.8
		c-0.7,0.9-1.4,1.1-2.3,0.3c-1.2-1.1-3.7-1.3-3.6-3.2c0.2-3.1,1.6-5.9,4.5-7.5c2.9-1.7,6.1-1.8,9.3-1.7c1.9,0.1,2.1-0.4,1.7-2.2
		c-0.7-3.2-0.9-6.4-1.4-9.8c-1.7,0.3-2.8,1.4-4.1,2.4c-7.4,6.1-14,13.1-21.1,19.5c-2.2,2-4.5,4.1-6.9,5.9c-1.1,0.8-1.1,1.5-0.9,2.5
		c0.9,3.9,2.7,7.3,5.1,10.4c3.7,4.8,3.8,8,0.3,13.2c-1.4-1.6-2.8-3-3.2-5.2c-0.5-2.6-2-4.7-3.9-6.5c-0.2-0.2-0.4-0.4-0.6-0.6
		c-0.3,0.3-0.1,0.7,0,1c0.7,3.5,2,6.6,4.2,9.5c2.5,3.2,2.5,8.4-0.2,11.3c-1.9,2.1-2.9,4.5-3.8,7.1c-0.7,1.9-1.7,3.6-3.4,4.9
		c-1.2,0.9-2,0.9-2.5-0.8c-0.7-2.6-1.6-5.2-2.4-7.8c-0.4-1.3-0.9-2.3-2.7-2.5c0.4,2.4,0.7,4.7,1.1,7c0.6,3.7,1.2,7.4,1.9,11
		c0.2,1.2,0.1,1.7-1.3,1.7c-4.1-0.1-8.2-0.1-12.4,0c-1.5,0-1.6-0.6-1.3-1.8c1.3-6.3,3.1-12.5,3.7-19c0.3-2.9,0.8-5.7,1.6-8.4
		c0.2-0.5,0.4-1.1,0.3-1.6c0-0.6,0.1-1.6-0.8-1.7c-0.8-0.2-1.2,0.6-1.4,1.3c-0.3,1.7-0.6,3.4-0.8,5.1c-0.8,6-2.2,11.9-3.4,17.9
		c-0.3,1.4-0.6,3.3-2.2,3.6c-1.6,0.3-2.6-1.4-3.6-2.6c-2-2.3-2.6-4.7-1-7.6c1.9-3.3,2.7-7.1,3.8-10.7c1.1-3.6,3.2-6.9,3.8-10.7
		c0.2-1.3,0.8-2.5,0.2-4.5c-1.2,2.5-2.3,4.4-2.9,6.4c-1.8,5.4-3.5,10.8-5.4,16.1c-0.7,1.8-1.4,1.6-2.6,0.7c-1.6-1.2-2.3-3.1-3.3-4.7
		c-1.2-2-0.1-3.5,0.7-5.2c0.3-0.7,0.5-1.5,0.7-2.2c0.1-0.2,0.1-0.4,0.2-0.6c-0.2,0.1-0.3,0.1-0.5,0.2c-2.5,1.9-3,1.7-4.1-1.1
		c-1.2-3-0.8-5.4,1-8c2.2-3.2,4.4-6.4,6.2-9.8c1-1.8,0.9-2.8-0.9-4.3c-5.8-4.9-11.2-10.3-16.8-15.6c-3.7-3.6-7.3-7.2-11.4-10.3
		c-1.4-1.1-2.7-2.3-4.8-2.5c0.3,3.3-0.5,6.4-1.5,9.4c-0.4,1.2-0.1,1.5,1.1,1.5c2.1,0,4.2,0.1,6.3,0.4c4.1,0.5,7.1,3.8,7.5,7.8
		c0.2,2-2.8,5.1-4.8,4.9c-0.6-0.1-0.8-0.4-1.1-0.8c-0.6-0.9-1.3-1.8-1.9-2.7c-2-3.1-2.1-3.1-5.6-2.1c-1,0.3-1.2,0.7-1.2,1.6
		c0,0.7,0,1.4,0,2.1c-0.3,2.9-0.8,3.4-3.7,3.7c-3.3,0.4-3.3,0.4-3.2,3.6c0,1,0.4,1.5,1.3,1.9c0.9,0.4,1.8,1,2.7,1.3
		c1.1,0.4,1.2,1,1.1,2c-0.4,3.4-1.7,5.5-3.7,5.9c-1.9,0.4-4.2-1.3-5.6-4.2c-2.3-4.5-2.1-9.3-1.1-14.1c0.1-0.8,0.3-1.5,0.3-2.3
		c0-1.3,0.4-3-0.3-3.9c-0.8-1.1-2.4,0.1-3.6,0.2c-2.6,0.1-3.4-0.7-2.9-3.3c0.5-2.7,2.7-4.7,3.5-7.3c0.3-1.1,1.2-2,0.9-3.3
		c-3.1,2.3-3.1,2.3-4.3,5.8c-0.6,1.7-1.3,3.3-2.1,4.9c-2.3,4.4-5.6,5.8-10.3,4.5c-0.8-0.2-0.7-0.6-0.7-1.2c0.1-1.9,0.9-3.4,2-4.9
		c1-1.3,2.1-2.5,2.4-4.2c0.4-0.4,0.7-0.9,0.3-1.4c-0.3-0.4-0.7-0.1-0.9,0.2c-2.7,1.2-4.1,3.5-5.6,5.8c-2.1,3.1-4.5,5.3-8.6,4.8
		c-2.2-0.3-3.6-1.1-4.2-3.6c-0.9-4.2,0.3-7.5,3.7-10c2.1-1.5,4.6-2.6,6.1-5.2c-1.6-0.1-2.7,0.7-3.9,1.1c-2,0.7-2.9-0.1-3.4-2
		c-0.9-4,0.7-7.1,4.5-8.7c0.5-0.2,1.1-0.5,2.3-1c-5.8-1.1-3.3-4.6-2.9-7.3c0.5-3,3.5-1.7,5.4-2.7c-0.8-1.3-2.6-1.9-2.5-3.9
		c0.1-1.8,0.8-3.2,1.7-4.7c0.6-0.9,1.3-1.2,2.3-1.3c2.2-0.2,4.5-0.6,6.7-0.7c2-0.1,1.9-0.9,1.1-2.3c-3.8-6.5-7.6-13-11.3-19.6
		c-3.9-7-8-13.9-10.6-21.5c-0.4-1.2-0.9-1.2-1.9-0.9c-1.4,0.4-2.2,1.4-2.8,2.6c-0.9,1.9-1.8,3.8-2.7,5.7c-1.1,2.5-3.1,1-4.6,0.9
		c-1.6-0.1-2.3-1-2-2.7c0.3-1.3,0.4-2.6,0.6-3.9c-0.2-0.1-0.4-0.3-0.5-0.4c-0.9,1.1-1.8,2.3-2.8,3.2c-1.9,1.8-6.7,1-8.1-1.2
		c-0.3-0.5-0.1-0.9,0-1.3c0.4-1.9,1.5-3.4,3-4.5c1-0.7,1.9-1.5,2-3.1c-1.3,0.3-1.9,1.3-2.7,1.9c-1.6,1.4-3.1,2.8-5.1,3.7
		c-2.1,0.9-4.1,0.6-5.9-0.9c-1.7-1.5-2.6-3-1.6-5.3c0.1-0.3,0.1-0.6,0.2-0.9c-0.1-0.1-0.3-0.3-0.4-0.2c-5.3,2.8-8.8-0.7-12.6-3.4
		c-0.6-0.5-0.5-1.1-0.5-1.7c0-2.6,1-4.8,2.5-6.9c2.4-3.4,4.7-6.9,5.5-11.2c0,0,0,0,0,0s0.1,0.1,0.1,0.1c3.3-4.5,3.3-4.4,8.6-2.4
		c4.9,1.8,9.9,2.5,15.1,1.3c1.1-0.2,2.8-0.6,2.7-1.8c-0.1-1-1.8-0.9-2.8-1c-4.7-0.5-9.5-0.1-14.2,0c-1.7,0-2.9-0.2-3.6-1.9
		c-0.2-4.9,2.6-7.1,7.9-6.1c0.8,0.2,1.7,0.4,2.5,0.6c0.3,0.3,0.7,0.5,0.9,0.1c0.2-0.2-0.1-0.5-0.3-0.7c-0.2-0.3-0.5-0.8-0.7-0.8
		c-2.8-0.3-2.6-2.5-2.6-4.3c0-2.7,2-4.1,4.6-3.2c2.3,0.8,4.5,1.7,6.8,2.5c1.7,0.6,2.3,0.2,2.2-1.8c-0.9-12-1.7-24.1-2.6-36.1
		c-0.3-3.8,0.1-7.6-0.5-11.4c-0.5-3.3-1.3-4.1-4.7-4.3c-1.6-0.1-2.9-0.6-3.9-1.7c-2.3-2.7-3.6-5.8-3.6-9.4c0-2.1,0.8-3.9,2.4-5.1
		c2-1.6,1.5-2.2-0.6-2.9c-1.2-0.4-2.2-1.2-3.1-2.1c-2.4-2.4-2.7-4.9-0.8-7.8c0.7-1,0.8-1.3-0.4-2c-3.9-2.5-4.1-6.8-4.4-10.8
		c-0.1-1.6,2-0.8,2.6-2c-5-1.8-6-6-6.1-10.7c0-0.7,0-1.3,0.9-1.6c2.6-0.9,5-2.2,7.7-2.8c2-0.4,3.5-0.2,4.6,1.6
		c0.3,0.4,0.6,0.9,1.2,0.9c1.5-5.3,5.2-7.4,10.6-6.2c0.9,0.2,1.1,0.8,1.3,1.4c1.2,2.4,2.3,4.8,3.5,7.1c0.3,0.7,0.7,1.4,1.6,1.9
		c0.2-2-0.4-3.7-0.8-5.3c-1.4-5.8-1.1-6.2,4.4-7.6c4.3-1,5.7-0.1,6.2,4.4c0.3,3.2,0.4,6.4,0.7,9.5c0.1,0.7-0.3,1.8,0.9,1.8
		c1.3,0.1,1.1-1.1,1.2-1.9c1-8.5,4-16.3,9.2-23.2c1.5-2,3.3-3.8,5.3-5.3c5.9-4.4,12.1-5,18.6-1.4c3,1.7,5.7,3.8,7.8,6.5
		c2.9,3.7,3,8.1,2.7,12.5c0,0.6,0,1.2,0,2.3c0.9-1.1,1.5-1.9,2.2-2.7c4.6-5.4,10-6.6,16.2-3.4c2,1,3.9,2.2,5.8,3.5
		c1.1,0.7,1.8,0.8,2.7-0.3c2.4-2.7,2.9-2.6,5.2,0.1c1.2,1.5,2,3.1,2.3,5c0.1,0.7,0.2,1.4,0.6,2c0.5,0.9,1.3,1.8,2.4,1.5
		c1-0.2,0.7-1.4,0.8-2.2c0.3-2.6-0.6-4.7-2.4-6.5c-1.8-1.8-3.9-3-6-4.4c-3.9-2.5-4-6.7-0.5-9.8c0.7-0.6,3-0.3,1.6-2.4
		c-1.4-2.1-3.2-2.9-5.1-2c-1.6,0.7-2.8,1.9-4,3.2c-1,1.1-1.7,1-2.6-0.1c-2.9-3.4-3.6-7.4-1.7-10.8c2.1-3.7,5.9-5.2,10.4-4.2
		c2,0.4,3.9,1,6,1.6c-0.3-2.9-1.3-5.4-3.2-7.4c-1.4-1.4-3.1-1.6-5-1.3c-2.4,0.5-4.5,1.6-6.8,2.5c-4.6,1.9-6.5,0.7-7-4.3
		c-0.1-0.9,0.6-2.3-0.7-2.6c-1.3-0.3-2.5,0.4-3.4,1.6c-3.1,4-3.2,8.3-1.6,12.8c0.3,0.8,0.7,1.6,1,2.4c0.4,1.2,1,2.4-0.1,3.5
		c-1.1,1.1-2.4,0.6-3.5,0.1c-5.5-2.3-9.1-8.5-7.6-13.5c0.1-0.3,0-0.6,0.1-1.1c-1.8,0.2-2.5,1.5-3.4,2.6
		c-5.5,6.8-12.2,11.8-20.9,13.7c-9.7,2.1-18.7-3-21.5-11.9c-1.8-5.9,0.2-11.4,5.3-14.6c5.6-3.4,12.2,0.1,12.6,6.6
		c0.1,2.4-1.2,4.1-4,5c-1.1,0.4-2.8,0.3-3,1.4c-0.3,1.4,1.5,1.8,2.3,2.6c3.6,3.1,7.5,3.3,11.7,1.5c4-1.8,7.1-4.7,10.3-7.5
		c1-0.9,2-1.8,3-2.5c0.8-0.5,0.9-1.2,0.8-2c-0.1-1.1-1-0.7-1.6-0.8c-1-0.2-2-0.2-3-0.5c-5-1.4-7.2-6.6-4.9-11.2
		c0.5-1.1,1.4-1.6,2.5-1.3c6.8,2,13.4,0,20.1-1.1c3.8-0.6,3.8-0.6,1.9-3.9c-1.4-2.4-1.4-4.9-0.4-7.4c0.8-1.9,2.2-2.5,4.2-1.7
		c2.5,1,4.6,2.7,6.4,4.7c8.5,9.2,17.7,17.8,25.4,27.7c0.2,0.2,0.4,0.5,0.9,1.1c-0.2-4.2-1.7-7.5-3.5-10.6c-4-7.1-8.9-13.5-15.1-18.9
		c-4.4-3.8-4.6-6.2-1.5-11.1c0.2-0.3,0.4-0.7,0.6-1c1.3-2.7,1.5-2.8,3.8-0.8c2.2,1.9,3.8,4.3,5.4,6.7c3.1,4.7,6.1,9.4,9.2,14.1
		c0.6,0.9,1.4,2.5,2.5,2c1.5-0.7,0.6-2.4,0.3-3.6c-1.8-5.5-4.7-10.5-7.7-15.4c-1.9-3.3-4-6.5-6-9.7c-0.6-0.9-0.7-1.8-0.4-2.8
		c0.9-3.2,2.4-5.9,5.4-7.6c1.3-0.7,2.1-0.8,2.9,0.8c3.5,7,6.6,14.3,8.2,22c0.2,0.8,0,2,1.3,1.8c1.3-0.1,0.8-1.3,0.8-2.1
		c0-8.6-0.4-17.1-2.2-25.5c-0.1-0.6-0.2-1.2-0.3-1.8c-0.3-2.6,0.2-3.3,2.6-3.7c2.8-0.4,5.6-0.3,8.4-0.2c1.9,0,2.4,1.3,2.2,2.9
		c-0.3,4-0.7,8.1-1.1,12.1c-0.6,5.5-1,11-0.9,16.8c1.7-1.2,2.1-3,2.6-4.5c1.6-5,3.5-9.8,5.8-14.5c2.1-4.3,3.4-4.5,7.1-1.3
		c4.7,4.1,4.9,5.2,1,10c-5.7,7.1-9.8,15.1-12.8,23.7c-0.5,1.5-0.6,3-0.9,4.6c0,0.2-0.1,0.5,0,0.6c0.3,0.2,0.3-0.1,0.4-0.3
		c3.3-5.3,6.6-10.5,9.8-15.8c2.3-3.7,5-6.9,8.2-9.8c0.9-0.8,1.4-0.8,2.3,0c3.3,2.8,4,6.5,4,10.5c0,1.3-1.2,1.8-2,2.4
		c-7,4.8-11.5,11.7-16,18.6c-1.5,2.3-2.6,4.9-3.2,8c1.9-1.1,2.7-2.7,3.8-4.1c7.5-9.1,16-17,25.9-23.3c1.3-0.8,2.7-1.5,4.2-1.9
		c2.3-0.5,3.3,0.4,3,2.7c-0.5,2.9-1.7,5.5-3,8.1c-0.1,0.3-0.2,0.6-0.4,1.1c7.4,0.7,14.4,3.5,21.9,1.9c3.6-0.8,4.7,0.2,5.2,3.8
		c0.6,4.2-1.2,7.2-5.4,8.6c-1.3,0.5-2.7,0.8-4.1,1c-1.1,0.2-1.6,0.5-0.7,1.6c4.7,5.7,10.2,10,17.6,11.5c4.4,0.9,8-0.9,9.3-4.3
		c0.4-1.1,0.5-1.8-1-1.7c-4,0.1-5.3-1.6-5.2-5.2c0.2-4.8,2.6-7.7,6.4-7.7c4.7,0,8.1,2.6,10.4,6.4c2.5,4.2,2.1,8.4-0.4,12.3
		c-2.7,4.1-6.4,7-10.9,8.9c-3,1.3-6.1,0.6-9.2,0.2c-1.4-0.2-2.7-0.4-4.3-0.3c5.6,3.9,11,7.8,14.1,14.1c3,6.1,4.2,12.8,5.7,19.6
		c1.4-1.6,1.5-3.4,1.6-5.1c0.3-2.6,0.3-5.1,0.6-7.7c0.3-2.7,2.1-3.9,5.7-4c2.8-0.1,4.5,1.2,5,3.9c0.5,2.8-0.4,5.4-0.9,8
		c-0.2,0.8-0.7,1.6-0.4,2.6c2.2-2.1,3-4.8,4-7.3c2-5.4,0.7-4.5,6.4-3.9c0.8,0.1,1.7,0.3,2.5,0.6c2.9,0.9,3.8,2.7,2.5,5.6
		c-0.4,1-1.1,1.9-0.9,3.2c2.5-0.9,3.8-2.8,4.8-4.8c0.6-1.2,1.3-1.6,2.7-1.3c2.7,0.5,5.1,1.8,7.6,2.8c0.8,0.3,0.8,0.8,0.8,1.4
		c-0.1,1.9-0.1,3.7-0.3,5.6c-0.2,2.5-1,4.5-4.1,4.8c-1.3,0.1-2.3,1.1-2.9,2.4c0.4,0.8,1.1,0.4,1.7,0.4c3.3,0.1,3.3,0,2.9,3.4
		c-0.4,3.6-1.4,6.8-5.8,7.9c3.7,2.7,1.6,5.7,0.7,8.5c-1.2,3.8-4.5,3.3-8,3.6c1.9,1.3,3.5,2.3,4.7,3.7c1.3,1.5,1.9,3.2,1.7,5.2
		c-0.5,4.6-5.1,9.2-9.7,9.6c-1.9,0.2-2.8,1.1-3,2.9c-0.2,1.5-0.3,3-0.3,4.4c0.4,12.5-1.3,24.9-1.8,37.3c-0.1,2.4-0.3,4.8-0.5,7.2
		c-0.2,1.5,0.4,1.8,1.7,1.4c1.7-0.5,3.3-1.4,4.9-2.2c3.4-1.8,7.8,0.9,7.6,4.7c-0.1,1.8,1.1,2.3,2.3,2.7c2.5,0.8,3.8,2.6,4.5,4.9
		c0.3,0.9,0.1,1.4-0.7,1.9c-2.5,1.4-5.1,1.9-7.9,1.4c-3.2-0.5-6.5-1-9.7-0.3c-1,0.2-2.4,0.2-2.3,1.5c0.1,1.4,1.6,1.3,2.6,1.2
		c6.2-0.7,12.4-0.7,18.5-2c1.6-0.3,2.5,0,3.4,1.5c1.1,1.8,2.1,3.6,2.6,5.7c0.5,2.1,1.7,3.8,2.9,5.5c0.9,1.2,1.7,2.4,2.4,3.7
		c2.6,4.5,2.4,5.7-1.4,9.4c-2.7,2.7-5.7,3-9.4,0.9c-0.9-0.5-1.8-1.2-2.7-1.8c-0.1-0.1-0.3-0.1-0.4-0.2c0,0.2,0,0.4,0,0.5
		c0.1,1.2,0.6,1.9,1.7,2.6c1.4,0.9,1.6,2,0.5,3.5c-2.7,3.5-5.1,4-8.8,1.5c-1.4-0.9-2.7-1.9-4.5-2.5c0.7,1,1.5,1.8,2,2.9
		c0.7,1.5,1.8,3.2,0.2,4.6c-2.5,2.3-4.9,2.5-6.9,0.8c-0.8-0.6-1.5-1.4-2.2-2.1c-0.2-0.1-0.4-0.3-0.5-0.2c-0.4,0.2-0.2,0.5,0,0.7
		c0,1,0.4,2-0.5,2.8c-1.4,0.7-2.2,2-3.4,2.9c-1.4,0.4-2.3,0-2.9-1.5c-0.9-2.5-2.1-4.9-3.1-7.3c-0.5-1.1-1.2-1.8-2.4-2
		c-0.9-0.1-1.4-0.1-1.7,0.9c-5.3,14-12.8,26.9-21.2,39.3c-2,3-1.8,3.4,1.7,4.5c0.7,0.2,1.4,0.5,2,0.4c3.3-0.2,6.2,0.2,7.1,4.7
		c0.7-2.6,0.7-2.6-0.7-4.9c-2.5-4-3.4-8.3-1.6-12.9c0.3-0.8,0.8-1.6,1.3-2.2c1.3-1.5,2.9-2.9,5-2c2.1,0.8,2.2,3,2.5,4.9
		c0.1,0.7-0.2,1.2-0.7,1.6c-0.4,0.3-0.8,0.5-1.1,0.8c-1,0.8-1.9,2-1.6,3.2c0.3,1.3,1.7,2,3.1,2.2c2.6,0.4,4.7,1.1,5.4,4.1
		c0.3,1.4,2.4,1.9,3.7,1.1c1.4-0.8,2.1-2.2,2.6-3.7c0.6-1.7,1.7-2.6,3.5-2.4c1.9,0.3,3.1,1.4,3.4,3.3c0.4,2.3-0.6,4.1-2.2,5.6
		c-2.4,2.5-5.6,3.6-8.9,4.4c-2.6,0.6-5.4,0.8-8.1,1.1c-2,0.2-3.5-0.3-4.2-2.3c-0.1-0.4-0.5-0.8-0.9-1.2c0.4,2.5-1.6,3.2-3.3,4.1
		c0.7,1,1.5,0.7,2.2,0.8c3.7,0.9,5.4,4.7,3.7,8c-0.6,1.2-1.3,0.5-1.9,0.3c-5.1-1.8-10.2-3.7-15.3-5.5c-1.3-0.7-2.5-1.3-3.8-2
		c-0.4-0.2-0.8-0.7-1.2-0.1c-0.3,0.5-0.3,1,0.2,1.5C-487.9,201.2-486.6,201.9-485.1,202.3z M-473.6,5.1c-1.5,0.2-2.2,1.2-2.9,2.1
		c-0.9,1.1-2,1.3-3.3,0.9c-3.9-1.2-4.8-3.2-2.7-6.8c0.7-1.3,1.6-2.5,2.4-3.7c1.4-2.1,2.7-4.2,3.5-6.6c2.5-7.4-0.9-16.2-7.6-19.6
		c-7.4-3.7-14.7,0.5-15.1,8.8c-0.1,2.5,0.3,5,1,7.4c1,3.6,5.7,5.1,8.7,2.9c1.5-1.1,1.4-2.2-0.3-2.9c-1.4-0.6-3-0.7-4.5-1.2
		c-2.9-1.1-3.6-3.4-1.7-5.9c2.9-4,8.4-4.3,11.8-0.8c6.3,6.5,4.8,15.3-3.5,19.6c-1.2,0.6-3.1,0.3-3.5,1.9c-0.3,1.4,0.1,2.9,0.2,4.4
		c0.1,1,0.2,2,0.3,3c0.8,6-0.8,11.2-4.2,16.1c-1.7,2.4-3.2,4.9-4.9,7.4c-0.9,1.2-1.4,3.6-2.8,3.4c-1.7-0.2-2.6-2.3-3.2-4
		c-0.1-0.1-0.1-0.3-0.2-0.4c-0.3-1.5-1.2-1.6-2.6-1.2c-3.9,1.3-7.9,2.4-12.1,2.4c-4.9,0-5.5-0.5-4.4-5.3c0.4-1.7-0.2-2.2-1.5-2.9
		c-6-3.2-10.8-7.6-13-14.3c-0.8-2.6-0.7-2.6,2-2.7c0.5,0,1.5,0.6,1.5-0.7c0-3.8-2.3-6.6-6.1-6.9c-3.9-0.4-7.9-0.6-11.9-0.6
		c-6.4,0-12.9-1.5-19.3,0.1c-1.8,0.4-4.1-0.4-5.2,1.2c-1,1.5-1.1,3.7-1.5,5.6c0,0.2-0.1,0.3-0.1,0.5c-0.2,0.7,0.2,0.9,0.8,1
		c2.2,0.5,2.7,1.5,1.8,3.6c-2.4,5.3-6.2,9.3-11.1,12.2c-1.3,0.8-2.8,1.5-3.7,2.8c-0.3,0.5-1.1,1.1-0.1,1.7c1.4,1,0.6,2.2,0.3,3.3
		c-0.3,1.3-1.6,1.2-2.5,1.1c-4-0.1-7.9-0.9-11.8-1.7c-1.4-0.3-2.8-1-4.1-0.7c-1.7,0.3-0.9,2.5-1.8,3.6c-0.6,0.8-0.6,2.4-1.6,2.3
		c-1.2-0.1-2.3-1.2-3-2.3c-0.1-0.1-0.1-0.3-0.2-0.4c-1.1-3.3-3-6.2-5-9c-3-4.3-4.3-9-3.9-14.1c0.2-2.6,0.5-5.1,0.9-7.6
		c0.2-1.1,0.1-1.8-1.1-2.1c-0.9-0.2-1.8-0.6-2.6-1c-9.2-4.4-9.9-15-1.5-20.8c4.7-3.2,9-1.5,10.2,4c0.6,2.6-0.2,4-2.8,4.7
		c-1.3,0.4-2.6,0.6-3.8,1.2c-1.7,0.8-1.7,1.9-0.1,2.9c2.7,1.8,4.7,1.5,6.6-1.1c2-2.7,2.7-5.7,2.8-9c0.1-5.1-2-8.8-5.9-10.5
		c-4.2-1.8-9-0.7-12.4,2.9c-3.6,3.8-4.5,8.5-4.7,13.6c-0.2,5.3,1.5,9.5,6.8,11.6c0.7,0.3,1.7,0.5,1.7,1.4c0.1,2.4-0.2,4.7-1.8,6.6
		c-1.4,1.7-3.3,1.6-5.2,1.1c-1.6-0.5-3.1-1.3-4.7-2c0.6,5,2.4,9.1,7.8,10.5c1.3,0.3,2.5,1.2,3.8,1.8c0.5,0.3,1.1,0.5,1,1.4
		c-0.4,3.5-1.3,6.6-4.5,8.5c-2.8,1.7-5.4,0.6-7.7-1.3c-2.1-1.7-4.1-3.4-6.4-5.4c0.1,3.7,0.9,6.6,2.8,9.3c0.8,1.1,1.6,2.1,2.2,3.3
		c1.3,2.6,0.8,4.8-1.6,6.8c-2,1.6-4.3,1.5-6.6-0.4c-2.2-1.8-3.1-4.2-3.5-6.9c-0.2-1.7,0.1-3.5-0.7-5.3c-0.5,0.6-0.8,0.9-1,1.3
		c-2,3.1-3.4,6.7-6,9.4c-2.1,2.2-2.9,4.7-3,7.6c-0.2,5.2,0.5,10.4,0.9,15.6c0.7,9.1,0.6,18.2,1.7,27.3c2.1,17.4,6.7,34.3,12.9,50.7
		c3.8,10,9.1,19,14.6,28.1c7.4,12.2,14.3,24.6,22.9,36c14.3,19.2,33.9,32.4,52.2,47c2.9,2.3,4.4,1.9,7.4-0.8
		c5.5-4.9,11.1-9.8,16.6-14.7c8.7-7.8,17.6-15.4,26-23.4c15.2-14.4,25.4-32.5,35.6-50.3c7.1-12.3,12.4-25.6,16.4-39.3
		c6.6-22.5,8.6-45.5,9-68.8c0.1-8.2-1.6-15.2-6.9-21.4c-0.6-0.6-0.7-1.7-1.8-1.9c-0.4,1.5-0.8,2.9-1.3,4.3c-0.5,1.5-1.1,2.9-1.9,4.2
		c-2.2,3.1-4.6,3.7-7.8,1.8c-2.8-1.6-3.1-3.4-1.4-7c1.4-2.9,3.1-5.6,4-8.7c0.4-1.6,1.1-3.1,0.5-5.1c-2.1,2.4-3.9,4.7-5.9,6.7
		c-2.8,2.7-6.3,2.7-8.9-0.2c-5.1-5.7-5.2-8.7,2.5-11.4C-475.2,12.9-473.4,10.4-473.6,5.1z M-507.6-15.6c-1.8-15.6,6-23.1,20.9-25.3
		c-6.7-4.6-11.6-10.2-17-15.6c-0.6,1.5-0.2,2.3-0.1,3.1c0.5,6.4-2.8,10.9-9.1,12.3c-2.3,0.5-2.5,0.3-2-2c0.7-2.9,1.6-5.7,2.1-8.6
		c0.8-4.6-2.1-9.6-5.8-10.7c-0.1,1-0.1,2-0.3,3c-0.1,1-0.3,2-0.6,3c-1.1,3.5-2.9,4.1-5.8,2c-1-0.7-2-1.5-3.1-2
		c-2.6-1.3-5.1-1.2-7.5,0.4c-3,2-4.9,4.9-6.7,8.5c2.9-0.9,5.2-2.4,7.8-2.7c4-0.6,7.9,1.3,9.9,5c1.7,3,1.1,6.2-1.6,9.4
		c-1.2,1.4-2.1,1.8-3.4,0.2c-0.9-1.1-1.8-2.3-3.1-2.8c-1.8-0.6-3.9-0.1-5,1.1c-1.1,1.1,0.4,2.7,1.3,3.8c1.3,1.6,2,3.3,2.4,5.2
		c0.3,1.4-0.1,2.2-1.3,2.8c-2,1.1-4.1,2.3-5.8,3.9c-2.3,2.1-4.3,4.3-4.9,7.4c-0.2,1.2-0.2,2.5,1.2,2.9c1.4,0.4,1.7-1,2.2-1.9
		c1.2-2.5,2.2-5.1,4-7.4c1.3-1.8,2.5-1.4,3.8-0.1c0.5,0.5,0.9,1.1,1.2,1.7c0.5,1.3,1.1,1.1,2,0.3c1.9-1.6,3.9-3.1,6.1-4.2
		c5.3-2.8,9.5-2.2,13.8,2C-510.7-19.2-509.3-17.5-507.6-15.6z M-610.1-12.1c-0.9,0.4-1,1-1.3,1.6c-1.3,2.8-2.5,5.8-5.2,7.6
		c-2.3,1.6-2.9,3.7-2.6,6.3c0.2,2.3,1.3,4.3,2.7,6.1c3.9,5.1,9,5.8,15,5c11.5-1.5,18.9-14.3,14.1-24.9c-1-2.3-2.6-4-5.1-4.3
		c-2.5-0.4-5.3,0-6.9,2c-1.6,1.9,0.7,3.5,1.6,5.1c0.1,0.2,0.3,0.4,0.4,0.6c1.1,2.2-0.2,5.2-2.5,5.9c-4.3,1.2-8.2-1.2-9.6-5.8
		C-609.9-8.6-609.8-10.3-610.1-12.1z M-506.7-9.6c-0.5,1.6-0.8,2.7-1.2,3.7c-2.3,5.9-6.7,5.5-11.1,4.1c-0.6-0.2-0.7-0.7-0.9-1.2
		c-1.2-2.6-0.2-4.6,1.4-6.6c0.7-0.9,2-1.8,0.4-3.1c-4.3-3.7-9.8-2.5-12.1,2.7c-1.6,3.7-1.5,7.6-0.4,11.4c3.5,12.4,18,17.4,27.8,9.7
		c4.6-3.6,5.4-8.6,2-13.3C-502.4-4.6-504.5-6.9-506.7-9.6z M-627.3,198.5c-1.5,0.6-2.8,0.6-3,2.1c-0.1,0.5-0.4,0.7-0.9,0.8
		c-3.8,0.7-7.3,2.5-11,3.6c-1.8,0.5-2.4,1.4-1.8,3.4c4.7-2.1,10.2-2.3,13.7-6.8c0.1-0.1,0.4-0.2,0.6-0.2
		C-627.1,202.2-627.9,200.1-627.3,198.5z M-683.5,14.2c3.8,5.6,9.9,7.5,16,9.3C-671.7,18.6-677.5,16.2-683.5,14.2z M-448.5,21.5
		c2.2,0.7,3.7,0.2,5.2-0.5c2.7-1.3,5.4-2.7,8-4.1c1-0.5,2.7-1.2,2.3-2.2c-0.6-1.3-2.3-0.8-3.6-0.3c-0.1,0.1-0.3,0.1-0.4,0.2
		C-440.8,16.6-444.5,18.8-448.5,21.5z M-643.2,218c0.2,0,0.3,0.1,0.4,0.1c5.7-2,9.5-6.8,14.3-10.1c0.6-0.4,0.2-0.8-0.3-1
		c-0.7-0.2-1.1,0.2-1.7,0.6c-3.6,2.4-7.2,4.8-11,7.1C-642.8,215.5-643.5,216.4-643.2,218z M-442.7,7.8c-4.7,2.4-8.8,5-11,9.7
		c3-1.4,5.4-3.8,8.5-4.8C-442.7,11.9-442.2,10.4-442.7,7.8z M-440,26.2c-1.9,1.1-3.7,2.2-5.4,3.3c-0.6,0.4-2,0.3-1.7,1.4
		c0.3,1.2,0.9,2.6,2.5,2.7c0.8,0.1,1.7,0,2.5,0.1c1.1,0.1,1.4-0.4,1.5-1.5C-440.6,30.3-440.3,28.3-440,26.2z M-673.5,9.8
		c0-1-0.5-1.3-1-1.5c-3.4-2.4-6.8-4.8-10.3-7.2c-0.5-0.4-1.6-1.4-1.8-0.4c-0.2,0.8-0.8,2.6,0.9,3.1c2.8,0.8,5.1,2.5,7.5,4.1
		C-676.8,8.8-675.4,9.8-673.5,9.8z M-440.1,118.6c2.7,2.7,16,3.7,18.1,1.5C-428,119.7-433.8,119.2-440.1,118.6z M-626.4,213.2
		c-3.9,3.9-7.3,7.9-10.6,12c-0.3,0.4-0.5,0.9-0.1,1.3c0.6,0.5,1-0.1,1.4-0.4c3.9-2.9,5.4-7.8,9-10.9
		C-626.3,214.9-626,214.3-626.4,213.2z M-614.6,218.1c-0.9,0-1.1,0.5-1.3,0.9c-2,4.2-3.1,8.6-4.2,13c-0.2,0.9-0.3,2,1.1,2
		c1.5,0.1,1.2-1.2,1.2-2c-0.1-3.6,0.7-6.9,1.9-10.2C-615.4,220.6-615.1,219.3-614.6,218.1z M-549.9,264.3c1.1,4.7,1.8,9.4,5.2,13.1
		C-545.3,272.5-547,268.2-549.9,264.3z M-675.1,33.6c2.3,0.1,4.4-0.9,4.3-1.8c-0.1-2-2-3.5-4.5-3.6c-0.6,0-1.4,0-0.9,0.7
		C-675.2,30.3-676.8,32.6-675.1,33.6z M-665.8,129.7c-5.8,2.1-7.8,4-7.5,6.9C-670.6,134.4-666.7,133.9-665.8,129.7z M-441.4,138.8
		c-1-3.8-4.2-6.7-7.7-7C-446.9,134.5-445.1,137.4-441.4,138.8z M-576.8,269.1c1.3-0.3,2-0.8,2.4-1.6c0.7-1.1,1.1-2.5,2.1-3.3
		c1.1-1,0.8-2.1,1-3.2c0.1-0.5-0.2-0.9-0.6-1.1c-0.6-0.3-0.8,0.4-0.9,0.7C-574.2,263.4-575.4,266.1-576.8,269.1z M-639.1,198.6
		c1.5-0.3,3.3-1.2,4.7-2.5c0.9-0.8-0.2-1-0.7-1.1c-2.1-0.5-3.9,0.4-5.6,1.6c-0.4,0.3-0.5,0.8-0.3,1.3
		C-640.7,198.4-640.2,198.6-639.1,198.6z M-556,270.7c-0.5,3.2,0.1,5.7,0.7,8.2c0.3,1,1,1.6,1.8,1.3c0.8-0.3,0.2-1.2,0.1-1.8
		C-553.8,275.9-554.5,273.4-556,270.7z M-666.6,15.4c-0.8-2.4-1.6-4.1-3.4-5.1c-0.8-0.4-2-1.2-2.5-0.3c-0.4,0.9-0.3,2.3,1.1,2.9
		C-669.9,13.7-668.5,14.5-666.6,15.4z M-430.8,134.5c-1.1-4.2-2.2-4.9-5.2-3.9C-435.4,133.3-433.2,133.7-430.8,134.5z M-438,101.3
		c-1.8,0.7-3.5,1.2-5.1,1.8c-0.9,0.3-1.3,0.8-0.3,1.4c1.7,1,3.3,0.3,4.8-0.4C-437.3,103.6-438.1,102.4-438,101.3z M-432.1,1.2
		c-2.3,2-4.3,3.6-6.6,5.5C-433.4,5.8-432.3,4.9-432.1,1.2z M-478.6,194c-1.1,0.2-2.8,0.7-2.7,1.5c0.2,1.5,1.9,1.8,3.3,2
		c0.7,0.1,1.6-0.1,1.4-1C-476.7,195.3-477.1,194.2-478.6,194z M-448.4,143.3c-1-2.6-2.6-4.8-5.4-5.6
		C-453,140.4-450.4,141.6-448.4,143.3z M-554.7-81.8c1.6-1.5,1.9-3,2.3-4.4c0.2-0.6,0.3-1.5-0.7-1.7c-0.9-0.1-1.5,0.5-1.6,1.3
		C-554.7-85.2-554.7-83.8-554.7-81.8z M-688.8,135.9c1.9-0.9,3.7-1.5,5.2-3C-688.1,132.4-688.4,132.5-688.8,135.9z M-663.5-5.1
		c0.3,2.7,0.8,3.3,3.6,5.3C-660.2-2.5-661.6-4.6-663.5-5.1z M-493.5,220.4c0.6,1.7,0.7,3.4,2.6,4.2
		C-490.9,222.6-490.4,220.6-493.5,220.4z M-561.7-86.1c-0.9,1.5-0.7,2.9,0,4.2c0.2,0.4,0.7,0.1,1-0.2c1.2-1.4,0.1-2.6-0.5-3.8
		C-561.3-85.9-561.4-86-561.7-86.1z M-676.9-7c-0.1-3.3-0.3-3.5-3.2-3.5C-679-9.3-678-8.2-676.9-7z M-613.7,232.7
		c-1.1,0.3-2.1,0.5-1.9,1.8c0.1,0.3,0.2,0.7,0.5,0.6C-613.9,234.9-614,233.9-613.7,232.7z M-677.2,138.9c-0.1-0.1-0.1-0.1-0.2-0.2
		c-0.1,0.1-0.1,0.2-0.1,0.3c0,0,0.1,0.1,0.1,0.2C-677.3,139.1-677.3,139-677.2,138.9z"/>
	<path class="st0" d="M-514.8,273.5c-4.5-0.2-8.3-1.1-12.3-0.9c-2.2,0.1-3-1.8-3.3-3.6c-0.7-3.8-1.4-7.6-1.9-11.5
		c-0.5-4,0.6-7.7,3.1-10.9c1.2-1.5,2.8-2.9,5-2.2c2.3,0.7,3,2.8,3.5,4.9c0.3,1.5-1,2.3-2,3.2c-0.7,0.6-1.6,1-2.2,1.7
		c-0.7,0.8-1.9,1.6-1.3,2.8c0.6,1.2,1.4,2.3,3.1,2.5c2.4,0.2,3.6,2.1,4.2,4.4c0.9,3.2,3.3,3.9,5.8,1.6c0.7-0.6,1.1-1.5,1.8-2.1
		c0.8-0.7,1-2.4,2.8-1.7c1.8,0.7,3.4,1.3,3.4,3.8c0,4.4-2.2,7.3-6.5,8C-512.8,273.4-514.2,273.5-514.8,273.5z"/>
	<path class="st0" d="M-600.7,274.3c-2.5-0.1-4.8,0.3-7.1-0.5c-3.1-1.1-5.4-4.1-5.4-7.2c0-2.9,2.8-5.1,5.6-4.4c1,0.2,1.2,1,1.5,1.9
		c0.9,2.6,3.1,3.9,5.7,3.6c1-0.1,1-0.7,1.2-1.4c0.3-1.3,0.7-2.6,1.1-3.8c0.5-1.3,1.3-2.1,2.9-1.6c1.3,0.4,2.1-0.2,2.5-1.4
		c0.5-1.3,1.5-2.7,0-4.1c-0.7-0.6-1.5-1.1-2.3-1.6c-1.2-0.7-1.9-1.6-2-3c-0.1-1.9-0.1-3.9,1.8-4.9c2-1.1,3.8-0.3,5.4,0.9
		c1.8,1.4,2.9,3.2,3.4,5.4c0.8,3.3,1,6.8,0.1,9.9c-0.7,2.5-0.8,4.7-0.5,7.1c0.2,2-1,2.9-2.7,3.5C-593.1,274.1-597,274.1-600.7,274.3
		z"/>
	<path class="st0" d="M-646.6,179.9c0,2.7-0.2,5.3-2,7.7c-1.4,1.8-1.5,4.2-1.9,6.4c-0.2,0.8-0.3,1.6-1.4,1.9
		c-6.5,1.6-12.7,1.2-18.1-3.3c-2.1-1.8-3.8-3.9-4-6.9c-0.1-2.1,0.9-3.2,2.9-3.5c2.3-0.3,3.8,0.6,4.1,2.7c0.2,1.8,0.8,3.2,2.7,3.6
		c1.7,0.4,3.2,0.8,3.3-2c0.1-2.4,1.3-3.2,3.9-3.1c0.6,0,1.3,0.1,1.9,0c1.4-0.2,2.6-1,3.1-2.2c0.4-1-0.7-1.8-1.4-2.5
		c-1.7-1.5-2.5-3.3-2.3-5.6c0.2-2.2,1.6-3.3,3.8-3c3,0.4,5.2,3,5.4,6.2C-646.6,177.6-646.6,178.7-646.6,179.9z"/>
	<path class="st0" d="M-447.6,153.6c2.5-0.2,3.9,1,4.6,3.3c0.7,2.5,1.8,4.8,2.9,7.1c2.2,4.6,1.9,9.4-0.9,13.8
		c-1,1.7-2.5,3.1-4.8,2.2c-1.5-0.6-3-4.5-2.5-6.2c0.2-0.6,0.6-0.7,1-0.8c2.2-0.7,2.3-2.6,2.3-4.4c0-1.7-1.7-2-2.7-1.8
		c-3.5,0.6-5-1.3-6.2-4c-0.4-0.9-1-2.1-2.3-2.1c-1.3,0-1.5,1.4-2.1,2.3c-0.4,0.7-0.6,1.5-1,2.1c-0.5,0.9-0.3,2.4-1.6,2.6
		c-1.7,0.3-3.4-0.2-5-0.9c-0.6-0.3-0.4-0.9-0.5-1.4c-0.8-4.3,0.8-7.1,4.8-8.8c2.5-1.1,4.9-1.9,7.6-2c1.6-0.1,3.1,0,4.6-0.5
		C-448.8,154-448.2,153.8-447.6,153.6z"/>
	<path class="st0" d="M-681,171.1c0.1-0.6,0.1-1.4,0.3-2.1c1.4-4.4,2.9-8.7,4.4-13c0.5-1.6,1.7-2.4,3.4-2.2
		c4.2,0.5,8.3,0.9,12.5,1.7c4.3,0.8,7.2,4.3,7.5,8.7c0.1,1.8-0.4,3.3-2.4,3.7c-2.5,0.5-4.6-0.5-5.2-2.4c-0.2-0.8-0.3-1.7-0.5-2.5
		c-0.4-1.2-1.3-1.6-2.5-1.7c-1.2,0-2.2,0.1-2.6,1.5c-0.8,2.6-2.3,4.3-5.3,4.2c-0.6,0-1.2,0.4-1.7,0.7c-1.7,0.8-2.2,1.8-0.7,3.4
		c1.4,1.5,2.6,3.1,2.4,5.4c-0.1,1.4-0.5,2.7-1.8,3.3c-1.4,0.7-2.7,0.3-3.9-0.6C-679.8,177.1-680.9,174.5-681,171.1z"/>
	<path class="st1" d="M-443.3,72.2c-0.1-3.3,1.9-5.5,4.5-7.2c0.6-0.4,1-0.3,1.4,0.2c0.9,1.1,1.9,2.1,2.8,3.1
		c0.6,0.6,0.5,1.2,0.1,1.9c-0.5,1-1,1.9-1.4,2.9c-0.4,1-0.8,2.2,0.1,3.1c1,1,2.5,1.1,3.5,0.4c2.2-1.5,3.5-0.1,4.8,1.1
		c0.6,0.6,1.2,1.1,2,1.5c1.8,0.7,2.9,0.2,3.3-1.7c0.3-1.4,0.5-2.8,1.2-4c0.7-1.3,1.7-2.4,3.3-2.2c1.7,0.1,2.6,1.3,3.1,2.8
		c1.1,3.3-0.2,6-2.3,8.3c-2.1,2.2-4.6,3.7-7.5,4.6c-2,0.6-4,1.3-5.5,2.9c-1,1-2.2,1.1-3,0c-3-4.3-7-7.9-9.3-12.8
		C-442.9,75.5-443.3,74-443.3,72.2z"/>
	<path class="st0" d="M-411.7,61.8c0.1,3.3-2.1,5.2-4.5,6.9c-0.2,0.2-0.6,0.2-0.8,0.1c-2.7-0.6-4.2-3.5-3.1-6.2
		c0.3-0.6,0.6-1.3,0.9-1.9c0.3-0.9,1.2-1.8,0.3-2.8c-0.9-0.9-2-1.1-3.3-0.8c-0.6,0.2-1.2,0.3-1.8,0.6c-1.6,0.6-2.7,0.1-3.3-1.5
		c-0.6-1.4-4.1-2.3-5.3-1.5c-0.4,0.2-0.4,0.6-0.4,1c-0.1,0.7-0.1,1.4-0.2,2.1c-0.4,4.5-1.5,5.2-5.9,4c-1.5-0.4-1.7-1.1-1.7-2.5
		c0.3-5.9,2.9-10.1,8.9-11.6c2.6-0.7,4.9-2.1,7.2-3.3c1.6-0.9,3.3-0.9,4.3,0.8c2.6,4.1,5.5,8.1,7.7,12.5
		C-412,59-411.7,60.4-411.7,61.8z"/>
	<path class="st0" d="M-704.1,75.9c-0.1-2.9,1.4-4.6,3.8-4.5c1.9,0.1,3.1,1,3.1,3c0,0.4,0,0.8,0,1.2c0,1.3-0.3,2.9,1.4,3.3
		c1.8,0.4,3.9,0.7,5.1-1.1c1.1-1.6,2.4-1.5,3.8-0.9c0.9,0.4,1.7,0.6,2.7,0.2c2.4-1,2.6-1.4,1.6-3.8c-0.3-0.6-0.6-1.3-0.9-1.9
		c-1.3-3-1-3.8,1.7-5.6c1.3-0.9,2.4-0.9,3.6,0.1c3.2,2.5,4.3,6.1,2.6,9.8c-2.5,5.4-6.6,9.8-10.5,14.2c-0.8,1-1.7,0.8-2.5-0.2
		c-1.6-1.8-3.6-2.8-6-3.3C-699.9,85.4-704,80.8-704.1,75.9z"/>
	<path class="st0" d="M-705.9,61.7c-0.3-4.1,1-7.4,4-10.3c1.5-1.5,2.7-3.2,4.1-4.8c1-1.2,2.2-2,3.9-1.5c4.3,1.4,8.8,2.6,12.5,5.5
		c2.4,1.8,4.1,4.1,3.8,7.3c-0.1,2.3-1.7,4.4-3.4,4.5c-1.9,0.2-3.4-1.2-4.2-3.7c-1.6-5.3-1.6-5.3-6.4-2.7c-1.8,1-3.6,0.8-5.4,0.8
		c-2.3,0.1-2.9,0.8-2.5,3.1c0.2,1.2,0.7,2.4,0.9,3.6c0.5,2.2-0.8,4-2.9,4.5c-2.3,0.5-3.9-0.7-4.3-3.1
		C-705.9,63.9-705.8,62.8-705.9,61.7z"/>
	<path class="st4" d="M-447.6,153.6c-0.6,0.2-1.2,0.4-1.8,0.6c0.3-0.5,0-0.7-0.4-0.9c1.2-0.9,2-2.2,3.4-2.9
		C-446.9,151.4-448.1,152.2-447.6,153.6z"/>
	<path class="st4" d="M-446,147.6c-0.2-0.2-0.3-0.5,0-0.7c0.1-0.1,0.4,0.1,0.5,0.2C-445.6,147.3-445.8,147.4-446,147.6z"/>
	<path class="st0" d="M-650.5,63.5c1.4,12.5,2.6,22.5,3.8,32.6c1.6,14.7,4.8,29,10.5,42.7c3.9,9.2,9.3,17.6,14.4,26.1
		c4.2,6.9,9.3,14.5,14.6,20.6c0.9,1,0.3,0.8-0.9,1.5c-0.9,0.5-1.7,1.4-2.1,2.4c-0.7,1.5-1.2,1.3-2.1,0.1c-6.5-8.4-12.2-17.2-18.1-26
		c-11.8-17.6-18.3-37-21.5-57.9c-2-12.9-3.8-25.9-4-39c0-2.9-0.5-5.9-0.9-8.8c-0.1-1.3,0.2-2.2,1.3-3c6.2-4.9,12.3-9.8,18.4-14.7
		c0.8-0.7,1.2-0.5,1.9,0c2.2,1.8,4.4,3.7,6.8,5.4c12.6,8.7,29.3,8.9,40.9-5.2c6.7-8.2,10.8-17.4,11.3-28.1c0.1-1.4,0.4-1.9,1.9-1.9
		c10.2,0.1,20.4,0.1,30.6,0c1.6,0,1.9,0.6,1.9,2c0.5,8.8,3.1,16.8,8.4,23.9c3.6,4.7,7.7,9.2,12.8,12.2c7.5,4.4,15.5,3.8,23.4,0.8
		c4.7-1.8,8.3-5.4,12.3-8.4c1.9-1.4,3.3-1.4,5.1-0.2c6.2,4.1,11.6,9.2,17.7,13.4c0.8,0.6,0.9,1.3,0.8,2.2
		c-1.6,15.3-1.6,30.8-3.7,46.1c-3.4,24.2-11.8,46.5-25.3,66.9c-5,7.6-10.4,15-16.1,22.1c-0.8,1-1.5,1.6-2.9,1c-0.9-0.4-2-0.4-3,0.1
		c-1,0.5-2,0.2-2.5-0.5c-0.6-0.8,0.5-1.3,0.9-1.9c9.8-12.3,18.9-25.1,26.5-38.9c8.5-15.4,13-32.1,15.8-49.3
		c2.2-13.7,3.3-27.5,3.5-41.4c0-1.7-0.4-2.6-1.8-3.6c-3.3-2.2-6.5-4.6-9.6-7.1c-1.7-1.3-2.8-1.4-4.6-0.2c-5.7,4-11.7,7.3-18.7,8.6
		c-9.4,1.8-17.6-0.8-25-6.3c-10.1-7.3-15.9-17.5-19.4-29.2c-0.1-0.4-0.2-0.8-0.3-1.1c-1.3-5-1.6-5.2-6.8-4.6c-0.9,0.1-1,0.3-1.1,1.3
		c-0.1,5.7,1.4,10.9,4.6,15.6c0.9,1.4,1,2.5,0.2,4.1c-1.9,4.1-5.3,7.3-6.7,11.7c-0.3,0.9-1.1,0.2-1.5-0.1c-1.9-1.2-3.3-2.9-4.5-4.7
		c-1.6-2.4-3-4.9-4.5-7.4c-0.7-1-0.6-1.9,0.1-3c2.9-4.8,5.1-9.8,5.1-15.5c0-1.5-0.3-2.1-1.9-2c-1.8,0.1-3.9-0.5-5.3,0.3
		c-1.4,0.8-0.8,3.1-1.2,4.7c-3.6,13.5-10.9,24.3-22.4,32.3c-9.4,6.6-19.4,6.1-29.6,2c-3.9-1.6-7.4-4-11-6.1c-1.6-0.9-3-1-4.5,0.1
		c-1.9,1.4-3.9,2.8-5.9,4.1C-648.3,57.2-651.3,60.5-650.5,63.5z"/>
	<path class="st1" d="M-612.4,189.5c1.8-0.2,3.4-6.2,5.1-4c3.6,3.9,16.9,18.8,20.8,22.9c0.2,0.2,0.4,0.4,0.6,0.6
		c5.9,5.4,11.8,10.9,17.8,16.2c2.5,2.3,5.2,4.4,8.1,6.3c1.1,0.7,1.8,0.7,2.9-0.2c9.4-7.9,33.8-30.9,42.1-40c0.9-1,7.3,0.1,7.7,0.8
		c0.4,0.7-13.7,16.1-14,16.5c-10.1,10.8-20.8,21-32.8,29.7c-0.4,0.3-0.9,0.6-1.4,0.9c-2.1,1.4-3.8,1.5-6-0.3
		c-11.4-9.3-23.2-18.3-33.4-29C-595.6,209.1-612,190.5-612.4,189.5z"/>
	<text transform="matrix(1 0 0 1 -646.6174 129.653)" class="st3" style="font-family:'NexaScript-SemiBold'; font-size:72px;">Ш</text>
	<text transform="matrix(1 0 0 1 -546.1917 129.653)" class="st3" style="font-family:'NexaScript-SemiBold'; font-size:72px;">Д</text>
	<text transform="matrix(1 0 0 1 -586.8763 201.5454)" class="st3" style="font-family:'NexaScript-SemiBold'; font-size:72px;">Т</text>
</g>
</svg>
